<?xml version="1.0" encoding="utf-8"?>
<!-- Generator: Adobe Illustrator 24.0.1, SVG Export Plug-In . SVG Version: 6.00 Build 0)  -->
<svg version="1.1" id="Capa_1" xmlns="http://www.w3.org/2000/svg" xmlns:xlink="http://www.w3.org/1999/xlink" x="0px" y="0px"
	 viewBox="0 0 341.1 491.6" style="enable-background:new 0 0 341.1 491.6;" xml:space="preserve">
<style type="text/css">
	.st0{fill:#FFFFFF;}
	.st1{fill:#4A9A5F;}
</style>
<g>
	<path class="st0" d="M170.6,0C76.5,0,0,74.8,0,166.8c0,37,22.2,93.2,70,176.9c32.6,57.1,65,105.4,66.4,107.4l23.5,34.8
		c2.4,3.5,6.4,5.6,10.7,5.6s8.3-2.1,10.7-5.6l23.5-34.8c1.4-2,33.6-49.9,66.4-107.4c47.8-83.7,70-140,70-176.9
		C341.1,74.8,264.6,0,170.6,0z"/>
	<path class="st1" d="M170.6,11.7c-89.2,0-161.7,71-161.7,158.2c0,35.1,21.1,88.4,66.4,167.8c30.9,54.2,61.7,99.9,63,101.9l22.2,33
		c2.2,3.3,6,5.3,10.1,5.3s7.9-2,10.1-5.3l22.2-33c1.3-1.9,31.8-47.3,63-101.9c45.3-79.4,66.4-132.7,66.4-167.8
		C332.3,82.6,259.7,11.7,170.6,11.7z M170.6,236.3c-34.7,0-62.9-28.2-62.9-62.9s28.2-62.9,62.9-62.9s62.9,28.2,62.9,62.9
		S205.2,236.3,170.6,236.3z"/>
</g>
</svg>
