<svg id="Layer_1" data-name="Layer 1" xmlns="http://www.w3.org/2000/svg" viewBox="0 0 100 14.85"><defs><style>.cls-1{fill:#fff;}</style></defs><title>novothor_white_nor</title><path class="cls-1" d="M94.61,8.15a6.87,6.87,0,0,0,2.25-.67A3.22,3.22,0,0,0,98,6.34a3.09,3.09,0,0,0,.41-1.54A2.6,2.6,0,0,0,98,3.3a3,3,0,0,0-1.74-1.19,13.59,13.59,0,0,0-3.5-.34H86.25V13h4.12V8.42c.38.5,1.23,1.33,1.76,1.91L94.74,13H100ZM91.84,6.66H90.37V4.39H92a6.65,6.65,0,0,1,1.57.12.89.89,0,0,1,.65.94,1,1,0,0,1-.63,1A4.23,4.23,0,0,1,91.84,6.66Z"/><path class="cls-1" d="M81.06.73A6.78,6.78,0,0,0,77.77,0a7.57,7.57,0,0,0-7.71,7.42,7.37,7.37,0,0,0,3.54,6.25l.26.15,7.5-7.47h-3l1.46-2.3.12.06a3.9,3.9,0,0,1,1.86,3.3,4,4,0,0,1-4.07,3.93,3,3,0,0,1-.63,0l-2.8,2.79a7.09,7.09,0,0,0,3.43.75,7.57,7.57,0,0,0,7.7-7.43,7.36,7.36,0,0,0-3.62-6.29L81.6,1,74.15,8.46h2.91l-1.47,2.31-.08-.08a3.9,3.9,0,0,1-1.82-3.28,4,4,0,0,1,4.08-3.93,2.64,2.64,0,0,1,.51,0Z"/><path class="cls-1" d="M60.42,5.73H65V1.78h4.12V13H65V8.72H60.42V13H56.3V1.78h4.12Z"/><polygon class="cls-1" points="55.36 1.78 44.28 1.78 44.28 4.69 47.78 4.69 47.78 13.01 51.9 13.01 51.9 4.69 55.36 4.69 55.36 1.78"/><path class="cls-1" d="M0,13.29V2.21H1.18c2.16,2.79,7,8.85,7.54,9.88h0c-.09-1.58-.08-3.16-.08-4.95V2.21h.94V13.29H8.47c-2-2.51-6.72-8.74-7.59-10h0c.08,1.44.08,3,.08,5v5.06Z"/><path class="cls-1" d="M22.52,7.72a5.53,5.53,0,0,1-5.7,5.8A5.58,5.58,0,0,1,11.08,7.7,5.61,5.61,0,0,1,16.82,2,5.62,5.62,0,0,1,22.52,7.72ZM12.11,7.66a4.68,4.68,0,0,0,4.71,5c3,0,4.67-2.14,4.67-4.87a4.68,4.68,0,0,0-4.76-4.87A4.57,4.57,0,0,0,12.11,7.66Z"/><path class="cls-1" d="M27.12,13.29l-5-11.08h1L26,8.46c1,2.28,1.43,3.25,1.65,3.82h0c.17-.48.87-2,1.44-3.32l3.07-6.75h1L28.11,13.29Z"/><path class="cls-1" d="M44.21,7.72a5.72,5.72,0,1,1-11.43,0,5.72,5.72,0,1,1,11.43,0ZM33.8,7.66a4.69,4.69,0,0,0,4.72,5,4.52,4.52,0,0,0,4.67-4.87,4.69,4.69,0,0,0-4.77-4.87A4.58,4.58,0,0,0,33.8,7.66Z"/></svg>