<svg id="Layer_1" data-name="Layer 1" xmlns="http://www.w3.org/2000/svg" viewBox="0 0 720 720"><title>Artboard 1123</title><path d="M360,0C161.18,0,0,161.18,0,360S161.18,720,360,720,720,558.82,720,360,558.82,0,360,0Zm0,689.56C174.13,689.56,23.45,542,23.45,360S174.13,30.44,360,30.44,696.55,178,696.55,360,545.87,689.56,360,689.56Z" style="fill:#fff"/><path d="M360,92.65C212.34,92.65,92.65,212.34,92.65,360S212.34,627.35,360,627.35,627.35,507.66,627.35,360,507.66,92.65,360,92.65Zm0,505.84c-134.5,0-243.54-106.78-243.54-238.49S225.5,121.51,360,121.51,603.54,228.29,603.54,360,494.5,598.49,360,598.49Z" style="fill:#fff"/><circle cx="360" cy="360" r="150.93" style="fill:#fff"/></svg>