<svg id="Layer_1" data-name="Layer 1" xmlns="http://www.w3.org/2000/svg" viewBox="0 0 720 720"><title>Artboard 1123</title><path d="M0,279.89c0,4.89.45,18.64.45,26.4,0,6.91,2.58,8.9,8.56,8.9H495.37c84.48,0,149.91-76.19,132.1-163.57C616.29,100.27,574.05,59.28,524,48.51,443,31.2,371.5,87.47,359.59,166A12.21,12.21,0,0,0,363.74,177l.24.21a12.23,12.23,0,0,0,7.95,2.94h21.69a12.2,12.2,0,0,0,8.38-3.33l.61-.58a12,12,0,0,0,3.72-7.32c6.29-53.14,55.26-87.87,109.33-77,33.13,7.87,58.81,33.54,66.67,67.5,14.91,58.39-30.64,110.56-87.37,110.56H8.7C1.48,270.05,0,276.32,0,279.89Z" style="fill:#fff"/><path d="M442.73,539.22c6.52,0-12.11,0-20,.31s-14.44,6.53-13.05,13.36c16.77,69.57,78,121.74,152.5,121.74,89.13,0,160.57-72.67,157.77-163C717.75,426.17,642,359.09,556.25,359.09H343.19c14.6,13.2,27.33,28.42,36.65,45.65H558.73c57.46,0,109.95,44.42,116.16,101.87,6.83,65.84-47.21,123.3-113,122.06C511.06,629.14,468,595.59,453,544,451.7,539.65,436.21,539.22,442.73,539.22Z" style="fill:#fff"/><path d="M136.14,505.89a11.86,11.86,0,0,0-11.39-11c-5.33,0-17.32-.62-22.78-.62S91.21,500.45,91.21,508c6.16,67,64.39,122,134.17,122,76,0,137.53-64.44,135.2-138.52S294,359.5,220.2,359.5s-202.63.83-208.5.83S.31,364.76.31,370.48v23.6c0,5.69,6.24,10.58,8.9,10.58h212c47.33,0,89.49,34.56,94.2,81.76,4.69,52.88-37.55,98.38-89.44,98.35C179.51,584.77,141.39,549.7,136.14,505.89Z" style="fill:#fff"/></svg>