<?xml version="1.0" encoding="utf-8"?>
<!-- Generator: Adobe Illustrator 26.5.0, SVG Export Plug-In . SVG Version: 6.00 Build 0)  -->
<svg version="1.1"
	 id="svg22" xmlns:svg="http://www.w3.org/2000/svg" xmlns:dc="http://purl.org/dc/elements/1.1/" xmlns:cc="http://creativecommons.org/ns#" xmlns:sodipodi="http://sodipodi.sourceforge.net/DTD/sodipodi-0.dtd" xmlns:rdf="http://www.w3.org/1999/02/22-rdf-syntax-ns#" xmlns:inkscape="http://www.inkscape.org/namespaces/inkscape"
	 xmlns="http://www.w3.org/2000/svg" xmlns:xlink="http://www.w3.org/1999/xlink" x="0px" y="0px" viewBox="0 0 420.6 395.6"
	 style="enable-background:new 0 0 420.6 395.6;" xml:space="preserve">
<style type="text/css">
	.st0{fill:#FFFFFF;}
	.st1{fill:#97233F;}
	.st2{fill:#FFB612;}
</style>
<sodipodi:namedview  bordercolor="#666666" borderopacity="1" gridtolerance="10" guidetolerance="10" id="namedview24" inkscape:current-layer="g4" inkscape:cx="519.98602" inkscape:cy="176.40383" inkscape:pageopacity="0" inkscape:pageshadow="2" inkscape:window-height="838" inkscape:window-maximized="1" inkscape:window-width="1600" inkscape:window-x="-8" inkscape:window-y="-8" inkscape:zoom="0.6675088" objecttolerance="10" pagecolor="#ffffff" showgrid="false">
	</sodipodi:namedview>
<path id="path8" inkscape:connector-curvature="0" inkscape:export-filename="C:\Users\alex\sites\arizona-cardinals-logo-4.png" inkscape:export-xdpi="57.515984" inkscape:export-ydpi="57.515984" class="st0" d="
	M419.9,320.8c-31.3-6.6-93.4-0.2-128.8,74.8c0,0-60.6-72.3-144.8-85.1c3.3-40.3-50-51-60.2-120.2c0,0-41.4-33.9-62.1-87.3l11,3.5
	c0,0-16.1-17.8-28.5-48.6l11.7,3.9c0,0-11.8-16-18.2-61.9c142.9,98.3,218.1,64,305,113.2c59,33.4,73,72.2,78,111
	C382.9,224.1,426.6,263.7,419.9,320.8"/>
<path id="path10" inkscape:connector-curvature="0" inkscape:export-filename="C:\Users\alex\sites\arizona-cardinals-logo-4.png" inkscape:export-xdpi="57.515984" inkscape:export-ydpi="57.515984" d="
	M413.9,312.5c0.9-48.6-37.2-83.2-37.2-83.2c-4.1-30.7-15.3-75.2-74.8-108c-90.3-49.8-140.3-9.1-282.7-96.4
	c3,16.3,12.3,38.9,24.3,52.9L28.8,73c10.7,22.6,27.8,43,36.8,49.7l-16.5-5.2c17.5,42.9,51.6,68.3,51.6,68.3
	c7.8,65.7,56,76.9,59.8,117.3c62.8,9.7,129.1,77,129.1,77C324.5,320.4,372.9,308.8,413.9,312.5"/>
<path id="path12" inkscape:connector-curvature="0" inkscape:export-filename="C:\Users\alex\sites\arizona-cardinals-logo-4.png" inkscape:export-xdpi="57.515984" inkscape:export-ydpi="57.515984" class="st0" d="
	M333.6,227.9c-13.6,22-36.7,15.9-44.9-11.6l16.6,1c-14.6-8.7-27.8-21.6-38.1-34.2c-3,60.5,53.9,87.7,72.8,45.2
	C337.8,228.3,335.7,228.2,333.6,227.9"/>
<path id="path14" inkscape:connector-curvature="0" inkscape:export-filename="C:\Users\alex\sites\arizona-cardinals-logo-4.png" inkscape:export-xdpi="57.515984" inkscape:export-ydpi="57.515984" class="st1" d="
	M294.4,129.5C229,93.7,149,117,46.8,53.6c10.1,30.3,73.4,65.7,73.4,65.7l-56-18.2c14.3,24.7,72.6,55.8,72.6,55.8L84.6,140
	c21.6,35.9,70.7,60.2,70.7,60.2l-30.1-2.2c3.9,33.8,50.5,62.9,53,88.9c21.1,8.1,48.3,22.1,69.5,40.4c40.5-19.9,29.3-87.3-47.9-183
	c106.2,6.4,103.3,85.2,164.3,73.9C359.5,197,356.7,163.7,294.4,129.5"/>
<path id="path16" inkscape:connector-curvature="0" inkscape:export-filename="C:\Users\alex\sites\arizona-cardinals-logo-4.png" inkscape:export-xdpi="57.515984" inkscape:export-ydpi="57.515984" class="st2" d="
	M406.3,299.9c-14.9-14.8-46.1-29.9-84.1-34.5c16.2-4.5,34.6-14.4,42.2-29.9C380.5,245.7,402.9,274.9,406.3,299.9L406.3,299.9z
	 M325,320.6c6.3-21.3-5.1-40.7-5.1-40.7c33.3-3.3,70,12.2,84.9,24.8C381.5,300,349.7,306.7,325,320.6L325,320.6z"/>
<path id="path18" inkscape:connector-curvature="0" inkscape:export-filename="C:\Users\alex\sites\arizona-cardinals-logo-4.png" inkscape:export-xdpi="57.515984" inkscape:export-ydpi="57.515984" class="st0" d="
	M333.6,227.9c-13.6,22-36.7,15.9-44.9-11.6l16.6,1c-14.6-8.7-27.8-21.6-38.1-34.2c-3,60.5,53.9,87.7,72.8,45.2
	C337.8,228.3,335.7,228.2,333.6,227.9"/>
</svg>
