<?xml version="1.0" encoding="utf-8"?>
<!-- Generator: Adobe Illustrator 26.5.0, SVG Export Plug-In . SVG Version: 6.00 Build 0)  -->
<svg version="1.1" id="Layer_1" xmlns="http://www.w3.org/2000/svg" xmlns:xlink="http://www.w3.org/1999/xlink" x="0px" y="0px"
	 viewBox="0 0 518.6 346.2" style="enable-background:new 0 0 518.6 346.2;" xml:space="preserve">
<style type="text/css">
	.st0{fill:#FFFFFF;}
	.st1{fill:#DA2128;}
	.st2{fill:#005496;}
</style>
<path class="st0" d="M54.7,245.7c36-23,47.4-48.9,47.4-48.9L0,211.4l43.4-77l87.2-7.4c0,0,33.9-30.2,86.4-52c0,0,5.5-9.5,35.5-26.8
	c0,0,27.5-16.2,58.8-26.5c0,0,21.2-7.3,27.5-7.7l-1.9-6.7l40-3.5l1-3.8c0,0,20.9,1.4,32.9,6.7l2.4-3.2c0,0,28,12.9,48.8,44.4
	c0,0,20.2-1.1,38.3,7.5c0,0,19.2,7.6,18.3,29.8c0,0-0.1,28.4-8.6,56.5c0,0-1.3,4.4-2.5,7c0,0-1.8,3.5-5.2,8.1c0,0-9.5,9.8-13.2,18.4
	c0,0-2,5.7-6,16.1c0,0-3,14.3-23.8,15.1c0,0-20.2,25.6-28.6,32.9l-0.7-6.2c0,0-14.1,13.1-26.3,20.7l4.1-36.2c0,0,1-6.5-3.1-6.9
	l-10.5-0.2c0,0,3.5,21.8-0.7,31.8c0,0-2.7,15.8-27.2,23.3c0,0-19,6-40.7,7.7l-4.6-0.7l-34.1,13.9l10-35.8c0,0-12.8,1.3-13.9-0.3
	l-38,16.3l14.9-42.8l10.2-5.7l-3.3-4.4l-21,0.2l-7.7,6c-17.9-4.7-35.2-3.4-35.2-3.4l-88.4,71.7l-22.1,48.9l-26.4-35.4l8.3-10.8
	L71,289l-12,9.4l-17.7,47.7l-26.1-36.9l6.7-15l-1.5-9.2c7.8-5.1,12.8-8.6,16.7-13c2.2-2.8,3.3-3.7,5.8-8.4
	c2.4-5.7,2.4-11.8,5.1-13.8C51.3,247.8,53.8,246.3,54.7,245.7L54.7,245.7z"/>
<path class="st1" d="M48.4,142.1l-33.8,59.6l435.9-65c0,0-15.1-11.5,6.8-29.7L48.4,142.1L48.4,142.1z"/>
<path class="st2" d="M490.8,98.6c0,0-34.1,23.3-22.2,43.3c0,0-12.4,6.9,1.3,16.5c0,0-21.1,9.5-15.5-16.5l-342.7,51.8
	c0,0-7.4,31.1-55.9,60.5c0,0-3.6,2.1-3.9,6c0,0,0.3,4.9-4.1,10.7c0,0-5.5,9.6-18.2,17.7l0.9,6.4l-6,13.6l14.6,20.9l13.2-35.5
	l26.1-20c0,0,25.5-40,67.5-55.6c0,0,37.1-15.8,91.1-6.8l4.9-4.7l62.6-1.4c0,0,2.3,0.5,0.8,1.8c0,0-12.3,9.5-25.8,10.7l1.3,3.9
	c0,0,0.4,1.3-0.6,1.6l-13.1,5.2l-8.7,24l24.6-10.7l1.4,1c0,0,21.4,1.3,53.6-5.2c0,0,22.3-4.4,28.6-33.4l42.5-1.8
	c0,0,8.9,1.9,7.7,10.1l-3,24.1l19.4-17.3l1.3,4.6c0,0,14.7-16,18.5-25.1c0,0,16.2,0.3,20.2-6.2c0,0,1.8-1.8,7-16
	c0,0,2.5-10,12.4-19.9c0,0,7.7-7.3,12.1-26.3c0,0,5.2-27.6,5.2-32.9c0,0,5.6-27.2-13.1-35.3c0,0-13.9-7.6-39.9-5.5
	c0,0-5.2-18.1-41-42.9l-2.6,3.9c0,0-12.2-8.4-29.6-8.3l-0.8,2.4c0,0-10.6,0-33.5,2.4l2.1,6.3c0,0-47.4,2.2-114.6,47.2l-1.2,3.7
	l-8.5,4l4.6,2.5c0,0-51.4,18.5-88.8,49.1L490.8,98.6L490.8,98.6z"/>
<path class="st2" d="M370.7,209.8l14.7-0.1c0,0,3,19.4,1.2,28c0,0-2.9,12.8-16,17.9c0,0-19.4,8.2-48.4,10.1l-1.4-1.2l-22,9.3
	l7.2-25.6c0,0,29.5-2.3,38.4-5C344.5,243.2,367.3,238.7,370.7,209.8L370.7,209.8z"/>
<path class="st2" d="M189.6,217.3c0,0-52.2-0.6-87.9,41.5c0,0-0.1,15.2-18.6,25.6l0.6,4.8l-8.8,12.1l15.6,20.9l17.6-39L189.6,217.3
	L189.6,217.3z"/>
</svg>
