<?xml version="1.0" encoding="utf-8"?>
<!-- Generator: Adobe Illustrator 26.5.0, SVG Export Plug-In . SVG Version: 6.00 Build 0)  -->
<svg version="1.1"
	 id="svg16" xmlns:svg="http://www.w3.org/2000/svg" xmlns:dc="http://purl.org/dc/elements/1.1/" xmlns:cc="http://creativecommons.org/ns#" xmlns:sodipodi="http://sodipodi.sourceforge.net/DTD/sodipodi-0.dtd" xmlns:rdf="http://www.w3.org/1999/02/22-rdf-syntax-ns#" xmlns:inkscape="http://www.inkscape.org/namespaces/inkscape"
	 xmlns="http://www.w3.org/2000/svg" xmlns:xlink="http://www.w3.org/1999/xlink" x="0px" y="0px" viewBox="0 0 407.9 219"
	 style="enable-background:new 0 0 407.9 219;" xml:space="preserve">
<style type="text/css">
	.st0{fill:none;}
	.st1{fill:#BFC0BF;}
	.st2{fill:#0085CA;}
</style>
<sodipodi:namedview  bordercolor="#666666" borderopacity="1" gridtolerance="10" guidetolerance="10" id="namedview18" inkscape:current-layer="g14" inkscape:cx="-448.6459" inkscape:cy="570.68559" inkscape:pageopacity="0" inkscape:pageshadow="2" inkscape:window-height="838" inkscape:window-maximized="1" inkscape:window-width="1600" inkscape:window-x="-8" inkscape:window-y="-8" inkscape:zoom="0.236" objecttolerance="10" pagecolor="#ffffff" showgrid="false">
	</sodipodi:namedview>
<path id="path6_00000027563081641075405900000018313777780986725259_" inkscape:connector-curvature="0" inkscape:export-filename="C:\Users\alex\sites\carolina-panthers-logo-5.png" inkscape:export-xdpi="134.39999" inkscape:export-ydpi="134.39999" class="st0" d="
	M-4.2,0h420.6"/>
<path id="path8" inkscape:connector-curvature="0" inkscape:export-filename="C:\Users\alex\sites\carolina-panthers-logo-5.png" inkscape:export-xdpi="134.39999" inkscape:export-ydpi="134.39999" d="
	M374.3,21.3L374.3,21.3L374.3,21.3z M316.5,107.8c0,0,4.8-10.5,2.6-23.4c0,0-9.1-3.3-25.6,0c0,0-7.9,17.7-17.9,26.3
	c0,0,7.7-17.9,3.1-31.3c0,0,13.9-5.5,30.8-4.3c17,1.2,20.8,4.8,20.8,4.8S326.1,100.1,316.5,107.8L316.5,107.8z M305.6,144.8
	c7.9-5.8,7-17.1,7-17.1c1.9,4.5,3,10.4,1.9,14.7s-3.8,8.5-15.4,9.6c-11.5,1.1-18.1-2.6-18.1-2.6c5.1-5.1,10.1-19,10.1-19
	c2.6,9.8,0.4,14.4,0.4,14.4C297.1,146.6,305.6,144.8,305.6,144.8L305.6,144.8z M323.7,142.9c2.8,20.3-15.3,28.8-25.3,28.8
	s-23.8-4.3-29.1-21.3c-5.3-17-5.3-38.1,1.5-48.3c0,0-4.5,20.3-2,31.8s7.3,21.3,16.5,23c9.3,1.7,23,1.2,28-4.5c5-5.8,7-14,2-25.3
	s-15-25.8,1.5-40.3c0,0-7.3,8.8-4.5,21.5C315.2,121.1,320.9,122.7,323.7,142.9L323.7,142.9z M259,59.1c-37.7-5.2-68.7,2.5-68.7,2.5
	c30.4-9.8,58-8.6,71.7-7C260.7,56.2,259.7,57.7,259,59.1L259,59.1z M257.2,68.5c-36.9-2.6-66.1,6.5-66.1,6.5
	c26.6-10.2,51.5-11.6,66.3-11.2C257,65.6,257.1,67.2,257.2,68.5L257.2,68.5z M195.1,121.8C181,104.5,187,81.5,187,81.5
	s0.5,19.8,17.8,37.3s38.7,22.2,38.7,22.2S209.2,139.1,195.1,121.8L195.1,121.8z M270.9,46.6c-1.9,1.3-3.6,2.7-5.1,4
	c-40.4-9.5-75.7-2.8-75.7-2.8C233.9,36.4,270.9,46.6,270.9,46.6z M239.4,25.5L239.4,25.5L239.4,25.5c0.6-0.3,12.9-5.4,25.5-2.6
	c12.9,2.9,20.9,11.7,20.9,11.7s-11.6-3.5-33-3.1c0,0-0.8-1.6,1.4-4.8C254.1,26.7,250.7,25.7,239.4,25.5L239.4,25.5L239.4,25.5z
	 M334.2,29.1c6.6-1.3,12.6,2.1,15.4,4.7c0,0-15.2-2.8-22.4,3.8C327.2,37.5,327.6,30.4,334.2,29.1z M406.8,79.3
	c-14.9-8.1-31.8-10.6-44.7-11.1c0,0-5.3,0.1-6.1,0.1c0.3-2.2,0.2-4.1-0.1-5.8c3.2-0.1,7.3-0.2,7.9-0.3h0.5c25.9-0.8,39.7,6,39.7,6
	l-1.3-1c-12.6-5.9-26-8-37.6-8.3h-0.5c0,0-5.6,0-9.8,0.1c-1.2-2.5-2.9-4.3-4.6-5.7c5.5,0,11.8,0,15.4,0.1h0.3
	c20,0.2,30.8,4.9,30.8,4.9l-1.3-1c-9.9-4.2-20-6.1-29.5-6.8c0,0-12.4-0.7-21.9-0.6c2.8,2.1,4.9,5.1,5.1,9.4
	C349.7,72.6,336,78,336,78c3.2-2.2,9-9.4,7.5-18.9c-1.5-9.4-13.8-13.9-13.8-13.9s-14.3,6.2-17.5,17.9c0,0,0.2-12.2-20.1-20.1
	c0,0,9.6-2.9,19.8-2.2c10.3,0.7,17.7,4.3,17.7,4.3s1.9-5,12-6.7s21,0.8,21,0.8c-2-3.7-4.3-9-14.5-13.2C338,21.9,329,25.7,329,25.7
	s-0.7-4.9-8-9.7c-12-7.7-43.6-12.4-49.7-12.7s4.6,3.6,8.9,6c4.9,2.8,10.3,7.5,10.8,11.9c0.1,1.2-0.2,2.2-0.7,3.1
	c-0.4-1.2-1.3-2.8-2.9-4.9c-8.7-11.1-30.7-16-47.2-14.9s-29.6,7.3-29.6,7.3c0.2,1.5-6.1,6.8-23.4,8.8c-16.5,1.8-28.1-1.2-32.3-1.8
	l-0.3-0.1c-1.7-0.2-3-0.1-3.5,1.1L151,20v0.2c-0.1,0.9,0.4,2,0.4,2l-0.2-0.5c1.2,2.3,8.2,15.2,17.4,21.8c0,0,5.5-1.2,12.1-1.9
	c0,0-101.3,49.3-142.4,126.3c17.9-2.1,41.4-3.5,67-1.2h-0.2l0,0c3.7-6.2,22.2-40.9,66.2-62.1c0,0-32.6,22.6-44.1,65
	c14.7,2.5,29.8,6.4,44.5,12.1c47.3,18.4,87.2,37.7,132.2,37.3l7.6-0.3l0,0c-11.9-24.9-23.7-36.3-23.7-36.3c8.9,1.6,16.1-0.9,16.2-1
	c0.7-0.2,1.2-0.5,1.7-0.7c14.7-7.9,17.2-21.3,18.4-31c1.4-11.1-0.6-18.2-0.6-18.2s25.5-33.4,31.9-59.7c0,0,3.3-0.4,5.8-0.4
	c30.3,0.3,46.9,8.8,46.9,8.8L406.8,79.3L406.8,79.3z M373.9,22.4c0.1-0.2,0.2-0.4,0.2-0.6l0.1-0.5l0,0c-0.6-1.7-1.7-1.8-4.2-1.6
	c-3.6,0.7-6.9,1.1-9.7,1.4l0,0h-0.5h-0.3l-1.2,0.1h-0.2c-3.6,0.3-5.9,0.3-5.9,0.3c9.2,6.9,10.2,17.6,10.2,17.6l0.5-0.4
	C370.1,33.7,373.9,22.4,373.9,22.4L373.9,22.4z"/>
<path id="path10" inkscape:connector-curvature="0" inkscape:export-filename="C:\Users\alex\sites\carolina-panthers-logo-5.png" inkscape:export-xdpi="134.39999" inkscape:export-ydpi="134.39999" class="st1" d="
	M278.8,79.4c4.6,13.4-3.1,31.3-3.1,31.3c10-8.6,17.9-26.3,17.9-26.3c16.5-3.3,25.6,0,25.6,0c2.2,12.9-2.6,23.4-2.6,23.4
	c9.6-7.6,13.9-27.9,13.9-27.9s-3.8-3.6-20.8-4.8C292.6,73.9,278.8,79.4,278.8,79.4L278.8,79.4z M334.2,29.1
	c-6.6,1.3-6.9,8.5-6.9,8.5c7.1-6.6,22.4-3.8,22.4-3.8C346.8,31.1,340.8,27.7,334.2,29.1z M305.6,144.8c0,0-8.5,1.8-14,0.1
	c0,0,2.2-4.5-0.4-14.4c0,0-5,13.9-10.1,19c0,0,6.6,3.6,18.1,2.6c11.5-1.1,14.3-5.3,15.4-9.6s0-10.2-1.9-14.7
	C312.6,127.7,313.5,139,305.6,144.8L305.6,144.8z M264.9,22.9c-12.5-2.9-24.8,2.3-25.4,2.5c0.6-0.3,12.3-5.2,24.6-2.7
	c-7-1.3-9.9,3.9-9.9,3.9c-2.2,3.3-1.4,4.8-1.4,4.8c21.4-0.4,33,3.1,33,3.1S277.7,25.9,264.9,22.9L264.9,22.9z"/>
<path id="path12" inkscape:connector-curvature="0" inkscape:export-filename="C:\Users\alex\sites\carolina-panthers-logo-5.png" inkscape:export-xdpi="134.39999" inkscape:export-ydpi="134.39999" class="st2" d="
	M355.2,72.1c-6.5,26.3-31.9,59.7-31.9,59.7l0,0c19.2-16.4,32.1-45.4,37.7-60.1C358.5,71.6,355.2,72.1,355.2,72.1L355.2,72.1z
	 M356,68.2c0.8,0,6.1-0.1,6.1-0.1c0.5-1.6,1.1-3.7,1.7-6c-0.6,0-4.7,0.2-7.9,0.3C356.2,64.1,356.2,66.1,356,68.2L356,68.2z
	 M312.5,108.4c-2.8-12.8,4.5-21.5,4.5-21.5c-16.5,14.5-6.5,29-1.5,40.3s3,19.5-2,25.3s-18.8,6.3-28,4.5c-9.3-1.8-14-11.5-16.5-23
	s2-31.8,2-31.8c-6.8,10.3-6.8,31.3-1.5,48.3s19,21.3,29.1,21.3c10,0,28-8.5,25.3-28.8C320.9,122.7,315.2,121.1,312.5,108.4
	L312.5,108.4z M374.5,20v-0.3v-0.2l-0.1-0.3l-0.1-0.1l-0.1-0.2l-0.1-0.1l-0.2-0.2l-0.1-0.1l-0.2-0.2l-0.1-0.1l-0.2-0.2l-0.1-0.1
	l-0.2-0.1l-0.1-0.1l-0.2-0.1h-0.1l-0.2-0.1h-0.1l-0.2-0.1H372h-0.2h-0.1h-0.1l0,0h-0.2c-12.6,0.1-23-4.2-23-4.2l-0.9-0.3
	C319.6,2.6,290.4-0.4,264.4,0.1l0,0c-11.6,0.1-20.1,1.1-20.1,1.1c-37.3,3.2-64,12.1-64,12.1s-10.2,2.9-23.7,2.2c0,0-5-0.1-6,3.1
	c-0.8,2-1,4.5,0.9,9.8c2.2,6.1,11,17.6,11.1,17.7C136,56.8,66.5,95.7,4.2,174.1c0,0,13.2-3.4,33.8-5.8C79.1,91.3,180.4,42,180.4,42
	c-6.6,0.7-12.1,1.9-12.1,1.9c-9.2-6.6-16.3-19.6-17.4-21.8l0.2,0.5c0,0-0.5-1.2-0.4-2v-0.2l0.1-0.2c0.5-1.2,1.8-1.3,3.5-1.1l0.3,0.1
	c4.2,0.6,15.8,3.6,32.3,1.8c17.3-1.9,23.6-7.2,23.4-8.8c0,0,13.1-6.2,29.6-7.3s38.5,3.7,47.2,14.9c1.6,2,2.5,3.6,2.9,4.9
	c0.5-0.9,0.8-1.9,0.7-3.1c-0.5-4.5-5.9-9.2-10.8-11.9c-4.3-2.4-15-6.4-8.9-6c6.1,0.3,37.8,4.9,49.7,12.7c7.4,4.8,8,9.7,8,9.7
	s9.1-3.7,19.2,0.4s12.5,9.5,14.5,13.2c0,0-1.1-10.7-10.2-17.6c0,0,2.3,0,5.9-0.3h0.2l1.2-0.1h0.3h0.5l0,0c2.8-0.3,6.1-0.7,9.7-1.4
	c2.5-0.2,3.6-0.1,4.2,1.6l0,0l-0.1,0.5c-0.1,0.2-0.1,0.4-0.2,0.6c0,0-3.8,11.3-10.8,16.4l-0.5,0.4c0,0-10.9-2.5-21-0.8
	s-12,6.7-12,6.7s12.2,4.5,13.8,13.9c1.5,9.5-4.3,16.8-7.5,18.9c0,0,13.8-5.4,13.1-18.7c-0.2-4.3-2.3-7.3-5.1-9.4
	c9.5-0.1,21.9,0.6,21.9,0.6c0.1-3.7-0.6-6.7-2-9.4c7.3-6.4,10-16,10.4-19.8l0,0l0,0c0-0.1,0.1-0.5,0.1-0.6V21c0-0.1,0-0.3,0-0.4
	L374.5,20L374.5,20z M292.2,43c20.3,7.9,20.1,20.1,20.1,20.1c3.1-11.7,17.5-17.9,17.5-17.9s-7.4-3.6-17.7-4.3
	C301.7,40.2,292.2,43,292.2,43L292.2,43z M350.1,53.2c1.7,1.4,3.4,3.2,4.6,5.7c4.2-0.1,9.8-0.1,9.8-0.1c0.4-1.8,0.8-3.6,1-5.3v-0.1
	C361.9,53.2,355.6,53.2,350.1,53.2L350.1,53.2z M303.8,181.6c-0.1,0-7.3,2.6-16.2,1c0,0,11.8,11.4,23.7,36.3l0,0h0.5
	c-1.2-11.3-6-30.3-7.1-33.9L303.8,181.6z M204.8,118.7C187.5,101.2,187,81.5,187,81.5s-5.9,23.1,8.2,40.3
	c14.1,17.3,48.4,19.2,48.4,19.2S222.1,136.2,204.8,118.7L204.8,118.7z M104.9,167L104.9,167h0.2c0.6,0.1,2.7,0.2,2.8,0.3
	c0.3,0,3.8,0.4,3.9,0.4c5,0.6,10.1,1.3,15.2,2.1c11.6-42.3,44.1-65,44.1-65C127.1,126.2,108.6,160.8,104.9,167L104.9,167z
	 M190.1,47.8c0,0,35.3-6.8,75.7,2.8c1.5-1.3,3.1-2.6,5.1-4C270.9,46.6,233.9,36.4,190.1,47.8z M190.3,61.6c0,0,31-7.7,68.7-2.5
	c0.7-1.4,1.7-2.9,3-4.5C248.4,53,220.7,51.8,190.3,61.6L190.3,61.6z M264,22.8c-12.2-2.4-24,2.5-24.6,2.7l0,0l0,0l0,0
	c11.3,0.2,14.7,1.2,14.7,1.2S257,21.4,264,22.8L264,22.8z M191.1,75c0,0,29.2-9,66.1-6.5c-0.2-1.3-0.2-2.9,0.1-4.7
	C242.6,63.4,217.7,64.7,191.1,75z"/>
</svg>
