<?xml version="1.0" encoding="utf-8"?>
<!-- Generator: Adobe Illustrator 26.5.0, SVG Export Plug-In . SVG Version: 6.00 Build 0)  -->
<svg version="1.1" id="Layer_1" xmlns="http://www.w3.org/2000/svg" xmlns:xlink="http://www.w3.org/1999/xlink" x="0px" y="0px"
	 viewBox="0 0 503.7 384.2" style="enable-background:new 0 0 503.7 384.2;" xml:space="preserve">
<style type="text/css">
	.st0{clip-path:url(#SVGID_00000111149420197006529040000001568333852408463006_);fill:#010101;}
	.st1{clip-path:url(#SVGID_00000126285422153519331070000016932454258260969350_);fill:#FFFFFF;}
	.st2{clip-path:url(#SVGID_00000061457755634630352400000005860878224468692130_);fill:#006DB0;}
	.st3{clip-path:url(#SVGID_00000121969701504213799450000017597091430426475196_);fill:#FFFFFF;}
	.st4{clip-path:url(#SVGID_00000127759808375069020470000006345422737173209771_);fill:#FFFFFF;}
	.st5{clip-path:url(#SVGID_00000039118092425413786260000010632770835196747670_);fill:#FFFFFF;}
	.st6{clip-path:url(#SVGID_00000008845826070880318200000009852276440627530941_);fill:#FFFFFF;}
	.st7{clip-path:url(#SVGID_00000115482389890399036930000005574912164625791370_);fill:#006DB0;}
</style>
<g>
	<g>
		<defs>
			<rect id="SVGID_1_" x="-54.3" y="-146.4" width="612" height="792"/>
		</defs>
		<clipPath id="SVGID_00000007388571981794346010000002802702754602823556_">
			<use xlink:href="#SVGID_1_"  style="overflow:visible;"/>
		</clipPath>
	</g>
	<g>
		<defs>
			<rect id="SVGID_00000014635242476708640380000010856763150128553638_" x="-54.3" y="-146.4" width="612" height="792"/>
		</defs>
		<clipPath id="SVGID_00000056405450413876012110000002441276512250189226_">
			<use xlink:href="#SVGID_00000014635242476708640380000010856763150128553638_"  style="overflow:visible;"/>
		</clipPath>
	</g>
	<g>
		<defs>
			<rect id="SVGID_00000108297565570291312790000010857420066468378009_" x="-54.3" y="-146.4" width="612" height="792"/>
		</defs>
		<clipPath id="SVGID_00000071555712018343649870000002500075993355377559_">
			<use xlink:href="#SVGID_00000108297565570291312790000010857420066468378009_"  style="overflow:visible;"/>
		</clipPath>
	</g>
	<g>
		<defs>
			<rect id="SVGID_00000121993452095994690540000004162805781946676412_" x="-54.3" y="-146.4" width="612" height="792"/>
		</defs>
		<clipPath id="SVGID_00000059277719269630847180000003915467881721545904_">
			<use xlink:href="#SVGID_00000121993452095994690540000004162805781946676412_"  style="overflow:visible;"/>
		</clipPath>
	</g>
	<g>
		<defs>
			<rect id="SVGID_00000146491619916432805690000017781681239508832158_" x="-54.3" y="-146.4" width="612" height="792"/>
		</defs>
		<clipPath id="SVGID_00000064316118799798486560000017229629234309100686_">
			<use xlink:href="#SVGID_00000146491619916432805690000017781681239508832158_"  style="overflow:visible;"/>
		</clipPath>
	</g>
	<g>
		<defs>
			<rect id="SVGID_00000136377094116578618170000005286889156123418294_" x="-54.3" y="-146.4" width="612" height="792"/>
		</defs>
		<clipPath id="SVGID_00000124150139892193770170000000117920035169509799_">
			<use xlink:href="#SVGID_00000136377094116578618170000005286889156123418294_"  style="overflow:visible;"/>
		</clipPath>
		<path style="clip-path:url(#SVGID_00000124150139892193770170000000117920035169509799_);fill:#010101;" d="M329.5,0.6
			c8.9,5.8,17.7,11.7,27,16.8c10,5.9,21.3,8.7,32.2,12.2c7.5,2.2,14.2,7.3,17.4,14.6c4.1,1.9,8.4,3.7,12,6.4c4,3.1,6.4,7.8,8.2,12.4
			c6.8,2.9,13.5,6.1,19.8,10c8.7,5.4,16.1,12.5,23.3,19.7c-5.7,3.1-10.8,7.5-14.4,13c-2.1,5.2-3.9,10.7-7.4,15.2
			c7.3-5.8,18.4-5.4,25.4,0.7c9.4-0.8,18.9,2.9,25.4,9.7c4.5,4.8,5.9,12.2,3.6,18.3c-1.7,3.5-0.4,7.7-2.5,11.2
			c-1.6,3.6-4.9,5.9-7.5,8.8c-2.6,4.7-6.6,8.9-11.8,10.7c-5.6,1.9-11.5,0.7-17.1-0.7c-7.5,1.4-15.4,1.2-22.6-1.7
			c-2.1,3.1-4.2,6.2-6.4,9.2c5.2,4.2,11,7.7,17.6,9.4c7.2,2,15.4,3.6,19.8,10.3c13.6-2.3,27,7.6,30.5,20.5c1.1,4.2,1,8.8-0.6,12.8
			c-1.4,3.8-5,6.3-6.2,10.2c-2.1,5.6-7.2,9.8-13.2,10.5c-6.3,5.9-16.3,7-23.8,2.5c-6.8-0.8-14.2-0.9-20.1-4.9
			c-3.6-2.2-6.2-5.5-9-8.5c-7.2-3.4-15.4-2.6-23-3.8c-11.6-1.9-23.2-4.4-33.9-9.6c-7.6,2.4-15.5,3-23.4,3.6c-1.8-4.4-4.1-8.7-7.5-12
			c-13.2,7-26.2,15.5-41.3,17.3c-1.1,5.6-2.3,11.3-4.5,16.7c-3.1,7.7-9.9,13.3-17.5,16.4c8.6,3.4,15.7,10.9,17.1,20.2
			c1.4,6.9-2.4,13.9-7.9,17.9c-2.3,5.1-6.9,9.1-12.4,10.3c-5.3,1.6-11-0.6-16.1,1.7c-8.1,2.9-16.6,0-23.4-4.6
			c-10.1,0.7-20.2,2-30.3,1.2c-7.3-0.6-13.6-5.7-16.3-12.4c-4.1,3-8.6,5.6-13.3,7.7c-7.6,3.7-15.1,7.8-22.1,12.6
			c0.4,1.5-0.4,3.8,1.4,4.6c5.7,2.8,10.5,8.1,11.5,14.6c0.5,4.9,0.2,10.1-2.3,14.4c-1.6,3-4.8,4.8-6.6,7.7c-2.3,3.5-5.7,6.4-9.8,7.4
			c-3.5,1.2-7.3,0-10.8,1.1c-5.7,1.7-12.2,1.5-17.5-1.5c-7.3-4.2-12.2-12.5-11.9-21c0.8-10.3,1.1-20.6,1.1-30.9
			c-3.4-5.9-5.7-13.2-2.5-19.7c2.8-7.2,10.8-10.3,14.2-17.1c3-5.4,3.3-11.7,3.7-17.8c0.4-7.2,1.2-14.3,1.6-21.5
			c-9.9-3.1-19.7-7.4-27.6-14.2c-7-6.7-12.9-14.8-16.1-24c-3.7-9.9-4.2-20.8-8.9-30.3c-2-4.2-5.3-7.7-9.1-10.4
			c-9.1,1.9-18.8-1.2-25.2-8c-4.9-4.1-7.5-10.7-13.6-13.3c-7.8-3.6-16.4-5-24.8-5.8c12.9-13.3,29.8-23.6,48.5-25.6
			c7.8-1,16,1.1,22,6.4c4.4,3.7,7.3,8.8,9.1,14.3c16.5,7.4,28.9,22.5,33.9,39.8c2.1,7.3,3.4,15.2,8.5,21.1c4.9,6.1,12.3,9.3,19.7,11
			c7.8-7.3,15-16.2,25.5-19.6c4.7-1.8,9.8-2.8,14.4-4.9c4.1-2.9,7.6-6.3,11.5-9.4c1.9-1.5,3.6-3.3,4.7-5.5c4-7.2,8-14.4,13.8-20.3
			c-3.6-7.5-5.8-15.8-5.8-24.2c1.9,0.6,3.8,1.2,5.7,1.8c0.3-13,9.1-23.3,18-31.8c0.2-7.7,2.4-15.4,6.3-22c-2.5-4.3-4.8-8.9-5.6-13.8
			c7.6-0.8,15.3-2.1,22.4-5.1c4.2-1.7,6.7-5.6,9.6-8.8c5.3-5.8,11.1-11.4,18.3-14.7c9-4.2,19-6.3,29-5.8c-3.2-2.4-6.7-4.4-10.4-5.9
			c8.4-5.2,18.2-7.8,27.9-8.9C327.7,10.1,328,5.2,329.5,0.6"/>
	</g>
	<g>
		<defs>
			<rect id="SVGID_00000140016297712860216930000007074061759925466268_" x="-54.3" y="-146.4" width="612" height="792"/>
		</defs>
		<clipPath id="SVGID_00000112622657219607753670000004978994672993461663_">
			<use xlink:href="#SVGID_00000140016297712860216930000007074061759925466268_"  style="overflow:visible;"/>
		</clipPath>
		<path style="clip-path:url(#SVGID_00000112622657219607753670000004978994672993461663_);fill:#FFFFFF;" d="M334.4,11.1
			c8.7,5.2,16.6,11.9,26,15.9c8.4,3.5,17,6.2,25.6,9.1c6.6,1.8,12.8,6.4,14.4,13.3c5.7,2.7,12.4,4.4,16.2,9.8
			c2.8,3,2.4,8.4,6.6,10.1c7,3.1,14,6.3,20.4,10.6c5.3,4,10.3,8.4,15.1,13.1c-3.4,3.1-7.4,5.7-10.1,9.5c-2.7,6.7-5.1,14.1-10.9,18.8
			c-1.9,1.7-4.7,2.5-5.9,5c5.4,0.1,10.7,1.6,15.7,3.5c3.4-2.1,6.4-5.3,10.6-5.9c4.5-1.1,9,1.4,11.9,4.7c8.6-0.8,18.4,0.9,23.9,8.3
			c3.4,3.8,2.8,9.6-0.1,13.5c0,2.9,0.7,6-0.9,8.6c-1.2,2.3-3.6,3.4-5.7,4.8c-1.9,3.9-4.3,8.2-8.6,9.8c-4.9,2-10.3,0.3-15.1-1.4
			c-4.8,0.8-9.7,1.8-14.6,1.1c-3.5-0.7-6.6-2.7-9.6-4.6c-5.3,6.2-9.4,13.3-14.7,19.5c6.1,5.3,12.6,10.5,20.3,13.2
			c4.3,1.7,8.9,2.8,13.4,4s7.7,5,9.7,9.1c5.8-1.2,12.6-2,17.7,1.9c4.8,3.5,9.8,8,10.7,14.2c0.9,4.8-1.6,9.5-5.6,12.1
			c-0.7,2.8-1.2,5.8-3.2,8c-2.1,2.4-5.4,3.1-8.5,3.2c-2.7,3.6-7.1,6-11.6,5.1c-4.1-0.4-7.1-4.1-11.4-3.2
			c-8.6,0.6-17.5-3.6-21.5-11.5c-7.9-3.1-16.4-4.6-24.9-4.6c-12.7-1.5-25.4-4.6-36.6-10.9c-6.2,2.5-12.6,4.5-19.3,5
			c-2.4-5.7-6.7-10.5-12-13.8c-8.1,4.5-16.3,8.9-24.5,13.1c-7.4,3.8-15.8,5-24,5.8c0.7,6.2-1.2,12.3-3.2,18.1
			c-1.1,2.8-2.1,5.8-4.1,8.2c-2.3,2.3-5.1,4.1-8,5.7c-6.7,3.8-14.7,4.7-21.3,8.7c-3.4,2.1-6.5,4.6-9.5,7.2c3.7,0.7,7.6,2.5,11.3,0.7
			c3.2-1.3,6.3-3.1,9.9-3.3c9.5-1.2,18.2,6.6,20.3,15.4c1.2,5.2-2.5,9.7-6.8,12c-1.2,2.8-2.5,5.9-5.4,7.4
			c-4.7,2.5-10.1,1.1-15.2,1.1c-3.9,1.5-8.1,3.5-12.4,2.3c-4.5-0.8-8-4.2-12.4-5.2c-9.6,0.2-19.2,1.5-28.9,1.5
			c-4.4-0.1-8.6-2.4-11-6.1c-3.3-4.4-1.6-10.4,0.9-14.8c2.2-4.2,6.4-7.3,8.3-11.6c-1.1-2.4-4-3-6-4.3c-5.6,9.7-9,21.8-19.1,28
			c-11.3,6.6-24,11-34,19.9c0,4.2-0.1,8.4,0.3,12.7c5.1,0.8,10.3,3.5,11.9,8.8c1.2,5.7,0.6,13.4-5.6,16.1c-1.3,3.1-3.2,6.5-6.6,7.5
			c-3.5,1.4-7.2-0.6-10.6,0.9c-3.9,1.3-8.2,1.7-12,0.1c-5.6-2.4-9.6-8.3-9.3-14.4c-0.1-10.7,0.7-21.4,1-32
			c-0.7-5.3-5.5-9.8-4.1-15.5c2.7-8.3,12.7-11.1,15.6-19.3c5.8-15,3.2-31.3,5.8-46.9c-8.8-2.3-17.6-5.4-25.4-10.2
			s-13.5-12.4-17.5-20.5c-5.6-11.7-5.7-25.2-11.6-36.8c-2.9-5.8-7.8-10.3-13.5-13.4c-7,2.3-15.2,1-20.8-4
			c-4.8-3.8-7.7-9.4-12.4-13.3c-5.8-3.6-12.8-4.4-19.4-5.4c13.1-8.9,28.2-17.6,44.7-15.3c9.1,1.1,15.1,9.8,16.4,18.4
			c7.1,3.4,14.1,7.5,19.7,13.1c7.2,7.4,12,17,14.4,27c2.4,9.3,6.4,18.8,13.7,25.3c6.7,5.2,14.9,8.2,23.3,9.4
			c5.2-5.6,10.7-11,16.5-16c7-6,16.8-6.3,24.9-10.2c4.7-3.9,9.2-8,14-11.8c3-2.3,4.4-5.9,6.4-9.1c4.1-7.4,9-14.2,14.2-20.8
			c-3.2-4.2-5.2-9.3-5.5-14.7c1.7,0.2,3.5,0.3,5.2,0.5c-1.8-4.8-2.1-10.2,0.1-14.9c3.7-8.4,9.8-15.4,16.5-21.5
			c-0.2-8.9,2.2-17.8,7.6-25c-2.1-2.9-3.9-6.1-5-9.5c6.9-1.1,14.2-1.9,20.2-5.9c4.2-2.2,6.5-6.5,9.8-9.7
			c5.6-5.7,12.1-10.9,19.8-13.4c8.1-2.6,16.7-3.3,25.2-2.8c3-1.9,6.1-3.6,9.2-5.3c-2.9-2.9-6.1-5.6-9.6-7.7c6.4-1.6,13-2.7,19.7-2.4
			C333.8,18.1,334.6,14.6,334.4,11.1"/>
	</g>
	<g>
		<defs>
			<rect id="SVGID_00000031914444007718705150000011629538189502415251_" x="-54.3" y="-146.4" width="612" height="792"/>
		</defs>
		<clipPath id="SVGID_00000111190954269714887260000002359034977601141158_">
			<use xlink:href="#SVGID_00000031914444007718705150000011629538189502415251_"  style="overflow:visible;"/>
		</clipPath>
		<path style="clip-path:url(#SVGID_00000111190954269714887260000002359034977601141158_);fill:#006DB0;" d="M340.2,22.6
			c5.2,3.8,10.3,7.6,16.1,10.3c10.1,5.3,21.5,7,31.8,11.6c3.8,1.5,5.6,5.6,5.4,9.5c5,2.4,10.4,4.1,15.1,7.1
			c4.7,3.3,4.3,10.3,9.2,13.4c5.3,2.7,11,4.7,16.2,7.7c5.6,2.9,10.5,6.9,15.3,11c-3.3,2.2-7.2,4.4-8,8.6
			c-2.1,7.3-6.4,14.6-13.9,17.4c1.6-3.6,2-7.5,1.1-11.4c-7.6-0.2-15.3,1.1-22,4.7c0,4.1-0.4,8.8,2.4,12.2c1.6,2,4.6,2.5,6.9,1.4
			c3.6-1.6,5.9-4.9,8.1-8c0.1,3.1-0.9,6.8,1.3,9.4c0.9,2.4,0.2,5.1,0.1,7.6c6.8-3.3,14.5-1.2,20.9,1.8c6.2,1.2,9.6-7.9,16-5.9
			c1.7,1,2.4,3.1,4,4.2c5.6,1.3,11.7-1.1,16.9,1.9c2.8,1.5,6.8,3.8,5.9,7.5c-1.1,1.3-2.3,2.3-3.5,3.4c0.7,2.3,1.8,4.6,1.3,7
			c-1,1.9-3.5,2.2-5.3,3.1c-1.3,3.1-2.3,6.5-5.2,8.5c-4.3,0.9-8.6-0.7-12.6-2c-6.5,1.7-14.5,3.4-19.9-1.7c-3.1-3.5-8.5-1.2-11,1.8
			c-5.8,7-10.1,15.2-16.5,21.7c-9.8,9.8-20.3,19-31.6,27c-8,6-17.2,10.3-27.1,12.2c-3.8-5.9-8.9-11.3-15.7-13.6
			c-18.1-6.3-37.7-5.6-56.4-2.9c15.8,0.3,32.5,0,46.9,7.4c-6.9,3.9-14,7.8-21.3,11.1c-8.4,3.7-17.8,3.8-26.8,4.6
			c1.1,4.6,2.7,9.5,1.3,14.2c-1.4,5.3-2.5,11.2-6.6,15.1c-8.7,6.3-20.3,7-29,13.2c-6.1,4.1-11.4,9.6-14.4,16.4
			c6.1,1.3,12.1,2.7,18.2,3.7c6.7,1.5,11.9-5.5,18.6-3.8c4.6,1.4,8.6,5.5,9.3,10.4c-0.4,3.2-4,3.8-6.4,4.8c-0.4,2.1-0.8,4.1-1.4,6.1
			c-4.7,1.6-9.6,0.8-14.3-0.2c-2.3,1.7-4.9,3.4-7.9,3.3c-5.4,0.1-8.9-5.4-14.3-5.7c-10-0.3-19.9,2-29.9,1.3
			c-2.5-0.1-5.4-1.6-5.5-4.4c-0.2-4.8,3.7-8.1,6.2-11.6c2.5-3.4,6.4-7.2,4.8-11.8c-1.9-4.4-6.8-6.2-10.8-8.3
			c7.5-8.6,16.2-16.1,26.1-21.7c12.8-7.6,26-14.8,40.1-19.5c-21.7,3.7-42.3,13.6-59.3,27.5c4.1-8.1,11.2-14,17.5-20.2
			c-13.6,6.8-24.2,18.7-30.8,32.2c-3.9,8.3-8.1,16.5-12.8,24.4c-2.6,4.7-7.9,6.9-12.5,9.3c-8.7,4-17.1,8.7-25,14.2
			c-2.6,2-6.1,4.2-6.1,7.9c-0.4,6.4,0.2,12.9,1.1,19.3c3.4,0.5,7,0.7,10.1,2.5c2.1,2.2,2.3,5.7,1.3,8.5c-1.1,1.5-3.3,1.3-4.9,1.8
			c-0.5,2.2-0.3,5.1-2.5,6.5c-2.6,0.8-5.3-0.1-7.8-0.6c-2,1.3-4.2,2.7-6.7,2.5c-4.6,0.4-8.7-3.8-8.4-8.4c0.1-11.3,1.3-22.7,0.9-34
			c-0.1-4.4-4.5-7.7-3.9-12.2c2.3-3.9,6.3-6.2,9.4-9.4c4-3.7,6.1-9,7.6-14.1c4.7-16,1.3-33.1,5.8-49.1c-8.8-1.7-17.4-4.4-25.4-8.2
			c-8.1-3.8-14.6-10.5-18.9-18.3c-3.9-7-4.4-15.1-6.7-22.6c-1.8-6.3-4.1-12.5-7.1-18.3c-3.8-7.6-11.3-12.1-18.4-16.3
			c-3.7,1.9-8.1,2.9-12.1,1.3c-5.7-2.4-10.7-6.4-14-11.7c-2.2-3.9-6.6-5.2-10.6-6.5c5.9-2,12.2-3.4,18.4-2c3.4,0.7,6.4,2.5,9.5,4
			c-3.2-5.7-10-6.4-15.8-7.4c6.6-2.6,14.6-3,20.6,1.3c4.1,3.4,5.3,8.9,6.7,13.8c6.8,3.8,13.7,7.3,19.6,12.4
			c7.5,7.2,11.9,17.1,14.2,27.1c2.6,10.9,8.3,21.2,17.2,28.2c8.3,6.3,18.8,9,29,9.7c4.9-6.2,10.8-11.6,16.8-16.8
			c7.2-6.6,18-5.9,25.9-11.2c5.7-5,11.9-9.4,17.1-14.9c4.9-7.2,8.7-15.2,13.9-22.2c3.7-4.9,7.8-9.6,12-14.2
			c-3.9-0.4-7.8-1.3-10.8-3.9c4-2.6,9.6-5,10.5-10.2c0.1-4.5-5.5-2.9-8.2-2.1c3.1-13,13.2-22.5,23.2-30.6c3.8-2.9,8.6-6.3,8.3-11.7
			c-2.4-4.8-8.4-1.7-11.2,1.1c2.2-5.6,5-11.2,9.7-15.2c-2.4-1.1-4.6-2.7-6.2-4.9c4.5-0.4,9.1-0.7,13.1-3c7.1-4,14.1-8.3,21.7-11.3
			c-3.3-0.3-6.7-0.1-9.9,0.8c6.6-6.8,14.9-12.4,24.4-13.9c11.4-2.3,23.1,1.3,34.4-0.9c-2.8-2.2-6.3-3.3-9.8-3.8
			c4.2-2.1,8.5-4,13.1-5c-3.1-2.7-6.5-5.1-10.1-7c5.7,0.4,11.5,0.7,17,2.4C341.3,27.9,340.6,25.3,340.2,22.6"/>
	</g>
	<g>
		<defs>
			<rect id="SVGID_00000135666949873958990180000017524920434330316428_" x="-54.3" y="-146.4" width="612" height="792"/>
		</defs>
		<clipPath id="SVGID_00000015335269161423901180000005490322847328385441_">
			<use xlink:href="#SVGID_00000135666949873958990180000017524920434330316428_"  style="overflow:visible;"/>
		</clipPath>
		<path style="clip-path:url(#SVGID_00000015335269161423901180000005490322847328385441_);fill:#FFFFFF;" d="M390.2,75.9
			c4.2-0.6,8.6-2.7,12.7-0.7c2.1,0.8,4.3,1.6,6.5,2.3c-1.3,2-2.5,4-3.5,6.2C401.6,79.6,396.2,76.6,390.2,75.9"/>
	</g>
	<g>
		<defs>
			<rect id="SVGID_00000170986205208870166270000010381497534172382361_" x="-54.3" y="-146.4" width="612" height="792"/>
		</defs>
		<clipPath id="SVGID_00000091013396130183155590000001656297162331803311_">
			<use xlink:href="#SVGID_00000170986205208870166270000010381497534172382361_"  style="overflow:visible;"/>
		</clipPath>
		<path style="clip-path:url(#SVGID_00000091013396130183155590000001656297162331803311_);fill:#FFFFFF;" d="M287.9,107.4
			c7.6-5.5,16.4-9.6,25.8-10.2c16.4-1,32.8,7.3,42.4,20.7c-11.7-8.5-25.5-15.5-40.3-15.2C306.2,102.6,296.9,104.8,287.9,107.4"/>
	</g>
	<g>
		<defs>
			<rect id="SVGID_00000068664350475972889620000015566008346008772480_" x="-54.3" y="-146.4" width="612" height="792"/>
		</defs>
		<clipPath id="SVGID_00000154389968327762277100000005329648216782351798_">
			<use xlink:href="#SVGID_00000068664350475972889620000015566008346008772480_"  style="overflow:visible;"/>
		</clipPath>
		<path style="clip-path:url(#SVGID_00000154389968327762277100000005329648216782351798_);fill:#FFFFFF;" d="M276.4,133.3
			c11.4-4.9,21.5-13.1,34-14.9c9.2-1.6,18.6-0.2,27.6,2.3c-11.4-0.8-23.1,0.6-33.5,5.7c-9.6,4.6-17.9,11.8-28.2,15
			c-10.6,4-22.5,3.9-33.2,0.2C254.6,141.1,266.1,138.4,276.4,133.3"/>
	</g>
	<g>
		<defs>
			<rect id="SVGID_00000022523458059409948510000003136375501310470578_" x="-54.3" y="-146.4" width="612" height="792"/>
		</defs>
		<clipPath id="SVGID_00000060743354775316250800000007467746541080654242_">
			<use xlink:href="#SVGID_00000022523458059409948510000003136375501310470578_"  style="overflow:visible;"/>
		</clipPath>
		<path style="clip-path:url(#SVGID_00000060743354775316250800000007467746541080654242_);fill:#FFFFFF;" d="M311.1,140.6
			c13.9-6.3,30-8.7,44.8-4.1c5.4,1.8,11.3,4.3,14.3,9.5c1.6,2.6,1.9,5.7,2.1,8.6c4.4-1.1,8.7-2.6,12.7-4.5c0.7-3.6,1.4-7.4,3.7-10.4
			c1.8-2.7,5.2-4.5,8.5-3.9c5.9,0.7,11.4,3.2,16.7,5.8c-14.5,10.7-31.5,17.6-48.7,22.8c1.9-5,2.2-10.9-1-15.5
			c-4.8-7.2-13.9-9.4-21.9-10.6C331.9,136.6,321.3,138.3,311.1,140.6"/>
	</g>
	<g>
		<defs>
			<rect id="SVGID_00000017509998244264693960000010317015683294335922_" x="-54.3" y="-146.4" width="612" height="792"/>
		</defs>
		<clipPath id="SVGID_00000052798532785812915400000017978947742014532028_">
			<use xlink:href="#SVGID_00000017509998244264693960000010317015683294335922_"  style="overflow:visible;"/>
		</clipPath>
		<path style="clip-path:url(#SVGID_00000052798532785812915400000017978947742014532028_);fill:#006DB0;" d="M379.6,224.3
			c14.8-8.4,28.1-19.1,39.9-31.4c4.7,4.2,9.5,8.3,15.1,11.4c6.7,3.5,13.9,5.9,21.2,7.6c5.1,1.1,5.3,8.2,10.5,9.3
			c4.7,0.7,9.6-2.3,14.1,0.1c3.2,1.8,5.8,4.6,7.7,7.7c0.8,1.6,1.9,3.7,0.8,5.4c-1,2.1-3.5,2.4-5.3,3.2c-0.2,2.8,0.3,6.1-1.8,8.3
			c-2.2,1.3-4.9,0.2-7.2-0.1c-1,2.2-1.7,5.2-4.4,5.7c-3.2,0.8-6-1.5-8.4-3.1c-5.5,0.3-11.6,0.7-16.4-2.4c-2.8-1.7-4.5-4.6-5.8-7.5
			c-7.2-3.1-14.8-5.3-22.7-5.7C404.2,231.8,391.3,229.8,379.6,224.3"/>
	</g>
</g>
</svg>
