<?xml version="1.0" encoding="utf-8"?>
<!-- Generator: Adobe Illustrator 26.5.0, SVG Export Plug-In . SVG Version: 6.00 Build 0)  -->
<svg version="1.1" id="Layer_1" xmlns="http://www.w3.org/2000/svg" xmlns:xlink="http://www.w3.org/1999/xlink" x="0px" y="0px"
	 viewBox="0 0 713.2 709.8" style="enable-background:new 0 0 713.2 709.8;" xml:space="preserve">
<style type="text/css">
	.st0{clip-path:url(#SVGID_00000124150136287563264950000004335032284684921475_);fill:#FFFFFF;}
	.st1{clip-path:url(#SVGID_00000124150136287563264950000004335032284684921475_);fill:#BFBEBF;}
	.st2{clip-path:url(#SVGID_00000124150136287563264950000004335032284684921475_);fill:#0E2B58;}
	.st3{clip-path:url(#SVGID_00000124150136287563264950000004335032284684921475_);fill:#FBBF15;}
</style>
<g>
	<defs>
		<rect id="SVGID_1_" x="-27.3" y="-30.7" width="768" height="768"/>
	</defs>
	<clipPath id="SVGID_00000182491764368271387710000006262457688096559510_">
		<use xlink:href="#SVGID_1_"  style="overflow:visible;"/>
	</clipPath>
	<path style="clip-path:url(#SVGID_00000182491764368271387710000006262457688096559510_);fill:#FFFFFF;" d="M713.7,353.3
		c0,197.2-159.8,357-357,357c-197.2,0-357-159.8-357-357c0-197.1,159.8-357,357-357C553.8-3.7,713.7,156.1,713.7,353.3"/>
	<path style="clip-path:url(#SVGID_00000182491764368271387710000006262457688096559510_);fill:#BFBEBF;" d="M700.1,353.3
		c0,189.7-153.7,343.4-343.4,343.4C167,696.7,13.3,542.9,13.3,353.3C13.3,163.6,167,9.9,356.7,9.9
		C546.3,9.9,700.1,163.6,700.1,353.3"/>
	<path style="clip-path:url(#SVGID_00000182491764368271387710000006262457688096559510_);fill:#0E2B58;" d="M680.4,353.3
		c0,178.8-144.9,323.8-323.7,323.8c-178.8,0-323.7-145-323.7-323.8c0-178.8,144.9-323.7,323.7-323.7
		C535.5,29.5,680.4,174.5,680.4,353.3"/>
	<path style="clip-path:url(#SVGID_00000182491764368271387710000006262457688096559510_);fill:#FBBF15;" d="M356.8,44.8
		C186.4,44.8,48.2,183,48.2,353.4c0,170.4,138.2,308.2,308.6,308.2c170.4,0,308.2-137.8,308.2-308.2C665,183,527.2,44.8,356.8,44.8
		 M356.8,154.1c110,0,198.9,89.3,198.9,199.3c0,110-88.9,198.9-198.9,198.9c-110,0-199.3-88.9-199.3-198.9
		C157.5,243.4,246.8,154.1,356.8,154.1"/>
	<path style="clip-path:url(#SVGID_00000182491764368271387710000006262457688096559510_);fill:#0E2B58;" d="M567.9,353.3
		c0,119.1-94.6,215.6-211.2,215.6c-116.6,0-211.2-96.5-211.2-215.6S240,137.6,356.7,137.6C473.3,137.6,567.9,234.2,567.9,353.3"/>
	<path style="clip-path:url(#SVGID_00000182491764368271387710000006262457688096559510_);fill:#FFFFFF;" d="M554.3,353.3
		c0,111.4-88.5,201.8-197.6,201.8c-109.1,0-197.6-90.3-197.6-201.8c0-111.4,88.5-201.7,197.6-201.7
		C465.8,151.5,554.3,241.8,554.3,353.3"/>
	<path style="clip-path:url(#SVGID_00000182491764368271387710000006262457688096559510_);fill:#0E2B58;" d="M345.3,59.1l-8.5,0.3
		l3.4,65.2l8.5-0.7L345.3,59.1z M455.2,76.4l-34.6,56.4l7.8,3.1l6.5-11.2l10.9,4.4l-2.7,12.2l8.1,3.1l12.2-64.8L455.2,76.4z
		 M232.2,87.9c-1.5,0.3-3,1-4.4,1.7l-12.9,6.5l29.9,57.7l12.9-6.5c5.3-2.7,9-8.6,5.8-14.9c-8.1-15.9-11.6-22.8-19.7-38.7
		C241.2,88.7,236.6,87.2,232.2,87.9 M231.5,95.7c2.1-0.2,4.3,1,5.4,3.1c6.7,13.2,11.3,22.5,18,35.6c1.4,2.7,1,5.7-2.4,7.5l-3.7,2
		l-23.1-45.5l3.7-2C230.2,96.1,230.8,95.8,231.5,95.7 M451.8,96.4l0.3,0.3l-4.8,24.8l-8.8-3.4L451.8,96.4z M556.7,139.9l-47.5,44.5
		l5.4,5.8l25.1-23.8L524.8,201l3.1,3.1l47.2-44.5l-5.1-5.8l-26.1,24.4l15.6-35.3L556.7,139.9z M136.1,161.9l-4.8,6.1l28.2,21.7
		l-37.3-9.8l-2.7,3.4l51.6,39.7l4.8-6.1l-27.2-21l36.3,9.2l2.7-3.7L136.1,161.9z M630.1,256l-65.5,8.8l2.7,7.8l12.6-2l3.7,11.2
		l-11.5,5.8l2.7,8.1l58.1-31.6L630.1,256z M612.1,265.8l0.3,0.7L590,278.4l-3.1-9.2L612.1,265.8z M76.7,277l-2,8.1l63.1,15.6l2-7.8
		L76.7,277z M151.8,451.2L94,481.4l4.1,7.5l22.1-11.5l5.8,11.2c1.7,3.2,4.5,4,7.5,2.4c10.3-5.4,15.5-7.9,25.8-13.2
		c2.8-1.5,3.9-4.5,2-8.1L151.8,451.2z M149.4,462l4.8,8.8L131,482.7l-4.8-8.8L149.4,462z M553.3,470.5c-1.3,0.2-2.5,1-3.4,2.4
		c-2.7,4.3-4.5,7.6-7.1,11.9c-1.6,2.5-0.6,5.7,1.7,7.1c4.9,3.1,6.9,4.5,11.5,7.5c1.3,0.8,2.7,0.7,4.4,0.7l24.4-1l12.2,7.8l-3.7,6.1
		l-12.9-8.1l-4.4,7.1l14.3,8.8c2.9,1.8,6,0.9,7.5-1.4c2.6-4.2,4.5-7.6,7.1-11.9c1.7-2.7,0.8-5.6-1.7-7.1c-6.1-3.8-8.5-5-14.6-8.8
		c-1.6-1-3.5-1-5.8-1l-22.7,1l-9.8-6.1l4.1-5.8l9.8,6.1l4.4-7.1l-11.2-7.1C556.1,470.7,554.6,470.3,553.3,470.5 M215.2,534
		l-49.9,43.1l6.4,5.1l9.5-8.5l9.2,7.5L184,592l6.8,5.4l31.2-58.4L215.2,534z M493.3,540.1c-1.3-0.3-2.8,0.2-4.4,1.4l-18,11.9
		l36.7,54l7.1-4.8l-32.9-47.9l8.8-6.1l11.9,17.3l-5.8,3.7l0.3,3.1l26.5,23.8l7.8-5.4l-23.8-20.4l1-0.3c2.6-1.7,3.5-4.7,1.4-7.8
		c-5-7.4-8.1-12.3-13.2-19.7C495.8,541.6,494.6,540.4,493.3,540.1 M205.7,552l0.3,0.3l-12.2,22.4l-7.1-5.8L205.7,552z M294.7,576.8
		c-2,0.3-3.5,1.8-4.1,4.1c-5.1,20.7-8.1,31.9-13.2,52.6c-0.8,3.1,1.2,5.7,4.1,6.5c5.9,1.5,9.8,2.6,15.6,4.1c2.8,0.7,5.4-1,6.1-4.1
		l4.4-16.6l-8.1-2l-3.7,14.9l-9.8-2.4l12.2-49.2l9.8,2.4l-3.1,11.5l8.1,2l3.4-13.2c0.7-2.9-0.9-5.7-3.7-6.5
		c-5.9-1.4-10.1-2.6-16-4.1C296,576.6,295.3,576.7,294.7,576.8 M407,579.5l-20.7,3.7l11.5,64.2l20.7-3.7l-1-7.1l-12.6,2.4l-4.1-22.4
		l11.5-2l-1.4-7.1l-11.5,2l-3.7-20.7l12.6-2L407,579.5z"/>
	<path style="clip-path:url(#SVGID_00000182491764368271387710000006262457688096559510_);fill:#BFBEBF;" d="M293.4,230.9L240,473.6
		l105.9,0.1c0,0,11.7-48.2,12.8-52.7c4.5,0,45.9,0,45.9,0c34.3,0.2,62.4-11.4,81.4-33.7c34.6-37.6,28.5-92.6,2.5-123.9
		c-18.6-22.5-45.5-34.9-75.6-35l-119-0.1L293.4,230.9"/>
	<path style="clip-path:url(#SVGID_00000182491764368271387710000006262457688096559510_);fill:#BFBEBF;" d="M486.2,265.4
		c-18.1-21.8-44-33.8-73.1-33.8l-116.5-0.1L244,470.4l99.4,0.1l12.8-52.6c13.4,0,48.5,0,48.4,0c33.3,0.2,60.6-11,79-32.6
		C517.1,348.8,511.2,295.7,486.2,265.4"/>
	<path style="clip-path:url(#SVGID_00000182491764368271387710000006262457688096559510_);fill:#0E2B58;" d="M351.1,411.3L338.3,464
		l-86.3,0L301.8,238l111.2,0.1c27.7,0,51.4,11.3,68.2,31.5c24.6,29.8,27,79.2-2.5,111.4c-18.1,21.2-44.7,30.5-74,30.3L351.1,411.3"
		/>
	<path style="clip-path:url(#SVGID_00000182491764368271387710000006262457688096559510_);fill:#FBBF15;" d="M422,256.3
		c-1-0.1-1.1,0.4,0.3,1.4c7.7,4.9,26.2,21.4,32.6,43.8c0.7,2.6,1.7,3.2,5.1,1.4c3.3-1.8,13-12.5,7.8-20.4
		C458.7,268.7,440.4,258.8,422,256.3 M401.3,256.7c-14.3,2.6-27.5,9.8-37.3,19.7c-1.2,1.2-1.6,2.3,1,2.4c2.7,0.1,23.3,0.5,34.6,4.1
		c11.5,3.7,19.8,8.1,28.9,14.3c9.1,6.2,12.7,9.7,20.4,8.8c1.6-0.2,1.3-2.2,0-5.8c-6.6-18.6-22.6-36.1-39.4-42.8
		C406.9,256.4,402.5,256.4,401.3,256.7 M291.6,284.5l-1.4,5.1l48.9,0.3c5.6,0,11.4,4.4,8.8,11.5c-1.6,4.4-2.8,9.5-3.4,14.3
		c-0.4,3.7,3.7,6.1,6.1,6.1l99.5,0.3c1.8,0,2.7-0.8,2.7-1.7s0-4.1-0.3-6.5c-0.3-2.2-0.6-2.4-2.4-2.4c-12.4,0-17.6-5.5-30.6-13.9
		c-13-8.4-31.8-13.2-48.2-13.2H291.6z M474.6,294.3c-0.9-0.1-1.8,1.6-2.4,2.7c-2.3,4.5-7.5,9.6-12.9,11.9c-2.2,0.9-1.5,2.8-1.4,4.4
		c0.1,1.7,0.2,4.7,0.3,6.1c0,1.4,0.2,2.7,2.7,2.7h19.4c0.9,0,1.7-1,1.7-1.7c-0.6-9.1-2.2-18.1-6.8-25.5
		C474.9,294.5,474.9,294.4,474.6,294.3 M282.1,326.6l-1.4,6.1H333c7.5,0,12,4,13.2,9.2c1,4,2.7,8.5,4.4,12.2
		c10.2,18.5,43.3,8.6,52.3,5.8c8.4-2.7,23.5-12,30.6-17.3c4.1-3.1,11.1-4,14.9-4.1c1.6-0.1,3.4,0.4,3.7-1.7c0.2-2,0.6-5.6,0.7-7.5
		c0.1-1.9,0.7-2.4-1-2.4L282.1,326.6z M460.3,326.9c-1.1,0-2,0.9-2,2.4c-0.1,1.9-0.5,6.4-0.7,7.8c-0.2,1.4-0.1,2.3,1.4,3.1
		c4.6,2.6,11.1,7.7,13.9,15.3c0.4,1,1.7,0.6,2,0c4-8.2,7.1-17.9,7.1-27.5c0-0.5-0.9-1-1.7-1H460.3z M446.4,343.6
		c-7.5,0.5-15.2,7.3-25.5,13.9c-10.3,6.6-31.4,12.6-51.3,12.6h-97.1l-1,5.1l88.3,0.3c3.9,0,7.5,0.9,10.2,3.1
		c7.5,6.2,16.9,10.6,27.2,13.6c4.6,1.3,12.6-0.4,19.7-4.4c17.7-10,29.2-29.1,32.9-41.4C450.8,343.1,448.9,343.4,446.4,343.6
		 M456.3,345.9c-0.8,0.1-1,0.8-2,4.1c-3.5,11.5-16.5,31.5-31.2,40.1c-4.9,2.9-1.8,3.3-0.3,3.1c18.2-2.7,34.9-12.3,45.5-26.5
		c1.5-2.1,0.3-9.5-2.4-13.2c-2.7-3.7-6.2-6.8-8.5-7.5C456.9,345.8,456.5,345.9,456.3,345.9"/>
</g>
</svg>
