<?xml version="1.0" encoding="utf-8"?>
<!-- Generator: Adobe Illustrator 26.5.0, SVG Export Plug-In . SVG Version: 6.00 Build 0)  -->
<svg version="1.1" id="Layer_1" xmlns="http://www.w3.org/2000/svg" xmlns:xlink="http://www.w3.org/1999/xlink" x="0px" y="0px"
	 viewBox="0 0 399.9 399.9" style="enable-background:new 0 0 399.9 399.9;" xml:space="preserve">
<style type="text/css">
	.st0{clip-path:url(#SVGID_00000183938140629364986770000003731827576365567627_);fill:#CE0E2D;}
	.st1{clip-path:url(#SVGID_00000183938140629364986770000003731827576365567627_);fill:#0A2240;}
	.st2{clip-path:url(#SVGID_00000183938140629364986770000003731827576365567627_);fill:#3A8DDE;}
	.st3{clip-path:url(#SVGID_00000183938140629364986770000003731827576365567627_);fill:#FFFFFF;}
</style>
<g>
	<defs>
		<rect id="SVGID_1_" x="-97" y="-23.1" width="594" height="446"/>
	</defs>
	<clipPath id="SVGID_00000041997065061997218090000001478972961853469106_">
		<use xlink:href="#SVGID_1_"  style="overflow:visible;"/>
	</clipPath>
	<path style="clip-path:url(#SVGID_00000041997065061997218090000001478972961853469106_);fill:#CE0E2D;" d="M200-0.1
		c110.5,0,200,89.5,200,200s-89.5,200-200,200S0,310.3,0,199.9S89.5-0.1,200-0.1"/>
	<path style="clip-path:url(#SVGID_00000041997065061997218090000001478972961853469106_);fill:#0A2240;" d="M200,9.9
		c104.9,0,190,85.1,190,190s-85.1,190-190,190s-190-85.1-190-190S95,9.9,200,9.9"/>
	<path style="clip-path:url(#SVGID_00000041997065061997218090000001478972961853469106_);fill:#3A8DDE;" d="M200,61.2
		c76.6,0,138.7,62.1,138.7,138.7S276.6,338.6,200,338.6S61.3,276.5,61.3,199.9S123.4,61.2,200,61.2"/>
	<path style="clip-path:url(#SVGID_00000041997065061997218090000001478972961853469106_);fill:#FFFFFF;" d="M200,66.7
		c73.6,0,133.2,59.6,133.2,133.2S273.5,333.1,200,333.1S66.8,273.4,66.8,199.9S126.4,66.7,200,66.7"/>
	<path style="clip-path:url(#SVGID_00000041997065061997218090000001478972961853469106_);fill:#FFFFFF;" d="M68.2,298.9
		c6.1-5.3,13.2-3.7,17.9,1.8c1.9,2.2,3.2,4.9,3.5,7.1l-3.3,2.8l-0.2-0.2c0.2-2.6-0.6-5-2.2-6.8c-2.5-2.9-5.9-3.6-8.7-1.2l-4.3,3.7
		c-3,2.5-3,5.9-0.4,9c1.6,1.9,3.8,3,6.7,3.4l0.2,0.2l-3.3,2.9c-2.4-0.6-4.8-2.3-6.8-4.6C62.4,311.3,62,304.1,68.2,298.9"/>
	<path style="clip-path:url(#SVGID_00000041997065061997218090000001478972961853469106_);fill:#FFFFFF;" d="M103.4,323
		c0.4-0.9,0.6-2,0.6-3.7l0.2-0.3l6.9,4.9l-11.6,16.3l9.1,6.4l-3,2.4L92,339.3l10.5-14.8C102.9,324.1,103.2,323.5,103.4,323"/>
	<path style="clip-path:url(#SVGID_00000041997065061997218090000001478972961853469106_);fill:#FFFFFF;" d="M135.5,342.4
		c0.2-1,0.1-2.1-0.2-3.7l0.1-0.3l7.8,3.3l-9.3,21.8l-6.1-2.6l7.1-16.7C135.2,343.5,135.4,342.9,135.5,342.4"/>
	<path style="clip-path:url(#SVGID_00000041997065061997218090000001478972961853469106_);fill:#FFFFFF;" d="M162.5,352
		c0-1-0.3-2.1-1-3.6l0.1-0.3l13.4,2.4c5.9,1.1,8.9,4.7,7.9,9.9c-0.9,5.2-5,7.7-10.9,6.6l-5.1-0.9l-1.2,6.9l-6.5-1.2l3.2-17.8
		C162.5,353.2,162.5,352.6,162.5,352 M171.6,363.3c2.2,0.4,3.7-0.4,4.1-2.7l0.5-2.9c0.4-2.3-0.7-3.5-2.9-3.9l-4.1-0.7l-1.7,9.4
		L171.6,363.3z"/>
	<path style="clip-path:url(#SVGID_00000041997065061997218090000001478972961853469106_);fill:#FFFFFF;" d="M203.5,356.5
		c-0.3-1-0.9-1.9-1.9-3.2V353l13.6-1.1c6-0.5,9.8,2.3,10.2,7.5c0.4,5.3-2.8,8.7-8.8,9.2l-5.2,0.4l0.6,7l-6.6,0.6l-1.5-18.1
		C203.8,357.6,203.7,357,203.5,356.5 M215.3,365c2.2-0.2,3.4-1.3,3.2-3.6l-0.2-2.9c-0.2-2.3-1.6-3.2-3.8-3l-4.1,0.4l0.8,9.5
		L215.3,365z"/>
	<path style="clip-path:url(#SVGID_00000041997065061997218090000001478972961853469106_);fill:#FFFFFF;" d="M244.4,350.1
		c-0.5-0.9-1.3-1.6-2.7-2.6l-0.1-0.3l17.7-6.3l2.2,3.1l-10.7,3.8l2,5.6l8.2-2.9l0.3,3.7l-7.3,2.6l2.3,6.5l11.3-4l0.2,3.8l-16.5,5.9
		l-6.1-17.1C244.9,351.1,244.7,350.6,244.4,350.1"/>
	<path style="clip-path:url(#SVGID_00000041997065061997218090000001478972961853469106_);fill:#FFFFFF;" d="M280.2,334.5
		c-0.8-0.7-1.7-1.2-3.3-1.8l-0.2-0.3l11.8-8.2c4.7-3.2,9-2.9,11.6,0.8c2.1,3,1.7,6.3-0.9,9.1l10.8,4l-6.6,4.6l-9.9-4l-1.5,1l5.1,7.3
		l-5.4,3.8l-10.3-14.9C281,335.3,280.6,334.9,280.2,334.5 M294.3,334.1c1.5-1,1.9-2.4,0.8-4l-1.2-1.8c-1.1-1.6-2.6-1.7-4.1-0.6
		l-4.1,2.8l4.5,6.4L294.3,334.1z"/>
	<path style="clip-path:url(#SVGID_00000041997065061997218090000001478972961853469106_);fill:#FFFFFF;" d="M326.2,321l-3.4-2.9
		l0.2-0.2c3.2-0.4,6-2.2,8-4.5c2-2.3,2.6-4.4,1.1-5.7c-1-0.8-2.1-0.9-3.7,0.2l-4.6,3c-3.5,2.2-6.5,2.6-9,0.5
		c-3.3-2.8-3.2-7.8,1-12.7c2-2.3,4.4-4.1,6.7-4.8l3.2,2.8l-0.2,0.2c-2.6,0.2-5.2,1.9-7,4c-1.7,2-2.3,4-1.1,5.1
		c0.9,0.7,2.1,0.5,3.5-0.4l4.7-3c3.7-2.4,6.9-2.8,9.7-0.4c3.8,3.3,2.8,8.6-1.3,13.4C331.7,318.1,328.7,320.4,326.2,321"/>
	<path style="clip-path:url(#SVGID_00000041997065061997218090000001478972961853469106_);fill:#FFFFFF;" d="M36.9,142.5
		c-1-0.2-2.1-0.1-3.7,0.3l-0.3-0.1l3.2-7.8l18.6,7.5l4.2-10.3l3.1,2.4l-6.4,15.4l-16.8-6.8C38.1,142.8,37.5,142.6,36.9,142.5"/>
	<path style="clip-path:url(#SVGID_00000041997065061997218090000001478972961853469106_);fill:#FFFFFF;" d="M58.8,114.6
		c-6.1-4.4-7.1-11.4-2.6-17.7c4.5-6.3,11.5-7.6,17.6-3.2c6.1,4.4,7.1,11.4,2.6,17.7C71.9,117.7,64.9,119,58.8,114.6 M73.4,109.3
		c2.1-2.9,1.6-5.9-1.4-8l-4.9-3.5c-3-2.1-6-1.6-8,1.3c-2.1,2.9-1.6,5.9,1.4,8l4.9,3.5C68.4,112.7,71.4,112.1,73.4,109.3"/>
	<path style="clip-path:url(#SVGID_00000041997065061997218090000001478972961853469106_);fill:#FFFFFF;" d="M92.6,88.6l-2.8-3.4
		L90,85c3.2,0.2,6.2-1.2,8.6-3.2c2.3-2,3.3-4,2-5.5c-0.8-1-2-1.2-3.7-0.4l-5,2.2c-3.8,1.7-6.8,1.5-8.9-1c-2.8-3.3-1.9-8.2,3-12.4
		c2.3-2,5-3.3,7.4-3.7l2.8,3.3L96,64.5c-2.6-0.2-5.5,1.1-7.5,2.8c-2,1.7-2.9,3.6-1.9,4.8c0.8,0.9,2,0.9,3.5,0.2l5.1-2.2
		c4-1.8,7.3-1.6,9.6,1.2c3.2,3.9,1.4,8.9-3.4,13C98.5,86.6,95.2,88.4,92.6,88.6"/>
	<path style="clip-path:url(#SVGID_00000041997065061997218090000001478972961853469106_);fill:#FFFFFF;" d="M147.6,31.7l-0.1-0.3
		l9.1-2.5l16,20.2l-6.9,1.9l-3.2-4.1L151.3,50l-0.7,5.2l-4.1,1.1l2.5-18.4C149.5,34.4,149.4,33.6,147.6,31.7 M160,43.9l-6.9-8.7
		l-1.4,11L160,43.9z"/>
	<path style="clip-path:url(#SVGID_00000041997065061997218090000001478972961853469106_);fill:#FFFFFF;" d="M188.5,27.3
		c-0.2-1-0.7-2-1.6-3.4v-0.3h8.6l11.9,14.7l0.1-14.6h4.3l-0.1,23.7h-5.4L193.1,31L193,47.3h-4.3l0.1-18.1
		C188.6,28.5,188.6,27.9,188.5,27.3"/>
	<path style="clip-path:url(#SVGID_00000041997065061997218090000001478972961853469106_);fill:#FFFFFF;" d="M230.7,38
		c1.9-7.2,8-10.8,16.3-8.6c2.5,0.7,5.2,1.8,7,3.8l-1.1,4.2l-0.3-0.1c-1.2-2.3-3.7-3.7-6-4.3c-4.1-1.1-7.1,0.3-8.1,4.1l-1.4,5.3
		c-1.1,4,0.8,6.6,4.5,7.6c1.1,0.3,2.2,0.4,3.1,0.3l1.8-6.8l-4.1-1.1l1.9-3.2l9.7,2.6l-3,11.4c-3.3,1.2-6.8,1.3-10.4,0.3
		C232.2,51.1,228.8,45.1,230.7,38"/>
	<path style="clip-path:url(#SVGID_00000041997065061997218090000001478972961853469106_);fill:#FFFFFF;" d="M275.1,44.1
		c0.3-1,0.3-2.1,0.2-3.7l0.2-0.3l16.5,9l-0.8,3.7l-10-5.5l-2.9,5.2l7.7,4.2l-2.6,2.7l-6.8-3.7l-3.3,6.1l10.5,5.7l-2.7,2.7l-15.4-8.4
		l8.7-15.9C274.7,45.2,274.9,44.7,275.1,44.1"/>
	<path style="clip-path:url(#SVGID_00000041997065061997218090000001478972961853469106_);fill:#FFFFFF;" d="M308.7,65.5
		c0.5-0.9,0.8-1.9,1-3.6l0.2-0.2l6.3,5.6l-13.3,15l8.3,7.4l-3.3,2.1l-12.5-11.1l12-13.6C308.1,66.5,308.4,66,308.7,65.5"/>
	<path style="clip-path:url(#SVGID_00000041997065061997218090000001478972961853469106_);fill:#FFFFFF;" d="M335.4,92.4
		c0.7-0.8,1.2-1.7,1.8-3.3l0.3-0.2l10.9,15.3l-2.3,3l-6.6-9.3l-4.8,3.5l5.1,7.1l-3.5,1.3l-4.5-6.3l-5.6,4l7,9.7l-3.6,1.3l-10.2-14.2
		l14.7-10.5C334.6,93.3,335,92.9,335.4,92.4"/>
	<path style="clip-path:url(#SVGID_00000041997065061997218090000001478972961853469106_);fill:#FFFFFF;" d="M338.9,131.8l4.1-1.7
		l0.1,0.3c-1.1,3-0.8,6.3,0.4,9.1c1.2,2.8,2.8,4.3,4.6,3.6c1.2-0.5,1.7-1.5,1.5-3.4l-0.5-5.5c-0.4-4.1,0.7-7,3.7-8.2
		c4-1.6,8.4,0.7,10.9,6.7c1.2,2.8,1.6,5.8,1.2,8.1l-3.9,1.6l-0.1-0.3c1-2.4,0.6-5.5-0.4-8c-1-2.4-2.5-3.9-4-3.3
		c-1.1,0.5-1.4,1.6-1.3,3.3l0.5,5.5c0.4,4.4-0.7,7.4-4.1,8.8c-4.7,1.9-8.9-1.4-11.4-7.2C339,138,338.4,134.3,338.9,131.8"/>
	<path style="clip-path:url(#SVGID_00000041997065061997218090000001478972961853469106_);fill:#0A2240;" d="M110.5,191.7l-23.8,3.7
		C89.1,134.9,138.9,86.5,200,86.5v0.6v36.8v11v6v6.2l0.6,0.2l1.7-6.4H232l0.2,0.7c-0.3,2.2-0.1,8.6,10.7,13.3l0.3,0.9l-43.1-1.1
		l-43.1,1.1l0.3-0.9c10.9-4.7,11-11.1,10.7-13.3l0.2-0.7h29.7l-1.5-5.9l-21.6,0.7l0.2-0.6c6.4-3.6,6.6-8.7,6.5-10.6l0.2-0.7h11.8
		l-3.5-13.3C147.8,115.3,114.4,149.2,110.5,191.7 M276.6,152.8l-3.5,10.5l0.7,1.6h31.4l1.3-3.9c-15.4-42.1-55-72.5-101.9-74.3
		l3.7,23.8C237.3,113,262.2,129.3,276.6,152.8 M273.9,234.9l-0.7,1.6l3.5,10.5c-14.4,23.4-39.3,39.7-68.1,42.4l-3.7,23.8
		c46.9-1.9,86.4-32.3,101.8-74.3l-1.3-3.9h-31.5V234.9z M245.2,161.8l-0.3-0.9H200h-44.9l-0.3,0.9c-0.1,2.7-1.3,11.2-13.1,22.9
		l-0.3,1c6.6-2.8,12.5-5.2,18-7.3c6.8-2.5,13.2-4.6,19.4-6.2c3.4-0.9,6.8-1.7,10.1-2.4c3.5-0.7,6.9-1.3,10.3-1.8l0.7-0.1l0.7,0.1
		c2.9,0.4,5.8,0.9,8.8,1.5c2.8,0.6,5.7,1.2,8.7,2c5.4,1.4,10.9,3.1,16.9,5.2c8.1,2.9,16,6.1,23.7,9.4l-0.4-1.4
		C246.6,173.1,245.3,164.5,245.2,161.8 M225.2,135.2c-6.4-3.6-6.6-8.7-6.5-10.6l-0.2-0.7h-11.8l-2.9,11.1l21.6,0.7L225.2,135.2z
		 M220.1,253c0.1,0.1,0.2,0.2,0.3,0.4c0.2,0.3,0.6,0.6,1,0.9c0.4,0.3,0.9,0.6,1.5,0.8c1,0.5,2.4,0.9,4.1,1.3
		c3.1,0.8,6.6,1.2,9.7,1.5c0.9,0.1,1.7,0.2,2.6,0.2c1.4-4,3.1-8,5.1-12c-3.6,1.6-7.5,3-11.6,4.2C227.6,251.8,223.2,252.6,220.1,253
		 M173.1,256.4c1.7-0.4,3-0.8,4.1-1.3c0.6-0.2,1.1-0.6,1.5-0.8c0.4-0.3,0.8-0.6,1-0.9c0.1-0.1,0.2-0.3,0.3-0.4
		c-3-0.4-7.5-1.2-12.7-2.6c-4.1-1.2-8-2.6-11.6-4.2c2,4,3.7,7.9,5.1,12c0.9-0.1,1.7-0.1,2.6-0.2C166.4,257.6,170,257.2,173.1,256.4
		 M313.3,199.9L313.3,199.9v4.5l-23.8,3.7l-24.9,3.9c-5.3,8.6-11,17.2-16,25.9c-0.6,0.4-1.2,0.7-1.8,1.1c-7.9,4.5-16.7,7.2-26.4,8
		c0.9-2.1,2.2-4.1,3.5-6.1c0.7-1.1,1.5-2.2,2.5-3.6c0.8-1.1,1.7-2.3,2.7-3.6c2.5-3.2,5.1-6.5,7.6-9.6c1.2-1.5,2.5-3.1,3.8-4.7
		l2.9-3.6c0.1-0.2,0.2-0.3,0.4-0.5c0.8-1.1,1.6-2.2,2.4-3.2c0.9-1.2,1.8-2.5,2.7-3.8c0.3-0.4,0.5-0.8,0.8-1.2
		c0.1-0.2,0.3-0.5,0.5-0.7l-4.8-1.4c0,0,0,0.1-0.1,0.1c-0.2,0.4-0.5,0.8-0.7,1.2c-0.7,1.1-1.5,2.2-2.6,3.6c-1.4,1.9-3.3,4.3-5.4,6.6
		c-0.1,0.1-0.2,0.3-0.3,0.4c-2.5,2.9-5.3,5.9-7.9,8.7c-1.5,1.6-3.1,3.3-4.6,5c-1.9,2.1-4.1,4.6-6.1,7.2c-1,1.3-1.9,2.6-2.8,3.9
		c-0.7,1.1-1.6,2.7-2.3,4.4c-0.5,1.2-1.1,3.1-1,5.3c0,2.1,0.9,4.3,2.4,5.9c0.8,0.9,1.7,1.6,2.6,2.2c1,0.6,2,1.1,2.9,1.5
		c1.7,0.7,3.6,1.2,5.8,1.6c1.9,0.4,3.8,0.6,5.6,0.7c1.9,0.2,3.9,0.2,5.5,0.2h0.2h1.1c-0.3,1.1-0.5,2.2-0.8,3.3l-16.6,6l-10.3,3.8
		l-7.2-74l-0.7-6.7l-1.3-13.6l-0.8,0.3v13.3v3.9v1.8v81.1v30.1v0.6c-62.6,0-113.4-50.7-113.4-113.3V200h25h41.8h6.6l0.2-0.7l-10.9-3
		l-10.2-2.8l0.4-1.1c18.7-8.3,39-16.2,60.5-19.2c21.1,2.8,41.4,11.2,60.6,19.5l0.3,0.8l-10.2,2.8l-10.8,3l0.2,0.7h6.6h41.8h24.8
		V199.9z M191.8,289.4l-2-13l-9.8-3.7l-16.6-6h-0.1c-0.2-1.1-0.5-2.2-0.8-3.3h1.1h0.2c1.7,0,3.6,0,5.5-0.2c1.8-0.1,3.7-0.3,5.6-0.7
		c2.2-0.4,4-0.9,5.8-1.6c0.9-0.4,1.9-0.8,2.9-1.5c0.8-0.6,1.8-1.3,2.6-2.2c1.5-1.6,2.3-3.8,2.4-5.9c0-1,0-2.7-1-5.3
		c-0.7-1.7-1.6-3.3-2.3-4.4c-0.8-1.3-1.8-2.7-2.8-3.9c-2-2.6-4.2-5.1-6.1-7.2c-1.5-1.7-3.1-3.4-4.6-5c-2.7-2.8-5.4-5.8-7.9-8.7
		c-0.1-0.1-0.2-0.2-0.3-0.4c-2.1-2.4-4-4.8-5.4-6.7c-1-1.4-1.8-2.5-2.6-3.6c-0.3-0.4-0.5-0.8-0.7-1.2c0,0,0-0.1-0.1-0.1l-4.8,1.4
		c0.2,0.2,0.3,0.5,0.5,0.7c0.3,0.4,0.5,0.8,0.8,1.2c0.9,1.3,1.8,2.6,2.7,3.8c0.8,1.1,1.6,2.2,2.4,3.3c0.1,0.1,0.2,0.3,0.3,0.4
		l2.9,3.6c1.3,1.6,2.5,3.2,3.8,4.7c2.5,3.2,5.2,6.4,7.6,9.6c1,1.3,1.9,2.4,2.7,3.6c1,1.4,1.8,2.5,2.5,3.6c1.3,2,2.6,4,3.5,6.1
		c-9.6-0.9-18.5-3.6-26.3-8c-0.6-0.3-1.2-0.7-1.8-1.1c-4.9-8.7-10.6-17.3-16-25.9l-24.9-3.9C114.5,251.2,148.7,285.5,191.8,289.4"/>
</g>
</svg>
