<?xml version="1.0" encoding="UTF-8"?>
<svg id="Layer_1" data-name="Layer 1" xmlns="http://www.w3.org/2000/svg" xmlns:xlink="http://www.w3.org/1999/xlink" viewBox="0 0 510.3 76.71">
  <defs>
    <style>
      .cls-1 {
        fill: none;
      }

      .cls-2 {
        clip-path: url(#clippath);
      }

      .cls-3 {
        fill: #fff;
      }
    </style>
    <clipPath id="clippath">
      <rect class="cls-1" width="510.3" height="76.71"/>
    </clipPath>
  </defs>
  <g class="cls-2">
    <path class="cls-3" d="M494.44,19.19c0-4.41,3.56-7.93,7.93-7.93s7.93,3.52,7.93,7.93-3.52,7.93-7.93,7.93-7.93-3.56-7.93-7.93m1.05,0c0,3.78,3.07,6.89,6.88,6.89s6.85-3.11,6.85-6.89-3.07-6.85-6.85-6.85-6.88,3.03-6.88,6.85m6.7,.97h-1.65v3.59h-1.2V14.66h3.7c1.57,0,2.88,1.09,2.88,2.77,0,2.02-1.79,2.69-2.32,2.69l2.43,3.63h-1.5l-2.36-3.59Zm-1.65-4.45v3.37h2.51c.93,0,1.64-.71,1.64-1.65,0-1.01-.71-1.72-1.64-1.72h-2.51Z"/>
    <path class="cls-3" d="M471.17,41.93c5.01-.81,8.76-1.93,11.21-3.37,2.41-1.42,4.31-3.31,5.68-5.67,1.38-2.36,2.06-4.91,2.06-7.64s-.76-5.28-2.26-7.5c-1.85-2.79-4.73-4.75-8.65-5.9-3.81-1.12-9.61-1.68-17.41-1.68h-32.28v55.92h20.52v-22.82c1.87,2.46,6.1,6.61,8.76,9.5l12.97,13.32h26.22l-26.83-24.16Zm-13.83-7.43h-7.29v-11.31h7.97c3.84,0,6.44,.21,7.8,.62,2.15,.68,3.22,2.24,3.22,4.67,0,2.13-1.04,3.7-3.11,4.71-1.77,.87-4.64,1.31-8.59,1.31"/>
    <path class="cls-3" d="M404.01,3.78C398.81,1.06,394,0,387.62,0c-21.18,0-38.35,17.17-38.35,38.35,0,13.55,7.03,25.46,17.63,32.28l.56,.35,38.03-38.2-14.73,.08,7.29-11.92,.6,.37c5.58,3.62,9.27,9.9,9.27,17.05,0,11.21-9.09,20.3-20.3,20.3-1.36,0-2.04-.01-3.11-.23l-13.93,14.44c5.3,2.82,10.54,3.84,17.05,3.84,21.18,0,38.35-17.17,38.35-38.36,0-13.71-7.19-25.74-18.01-32.52l-1.24-.74-37.1,38.63,14.48,.04-7.23,11.82-.48-.32c-5.46-3.64-9.06-9.85-9.06-16.91,0-11.21,9.09-20.3,20.3-20.3,1.13,0,1.73,0,2.54,.13l13.85-14.41Z"/>
    <polygon class="cls-3" points="300.88 29.87 323.72 29.87 323.72 10.2 344.24 10.2 344.24 66.13 323.72 66.13 323.72 44.74 300.88 44.74 300.88 66.13 280.36 66.13 280.36 10.2 300.88 10.2 300.88 29.87"/>
    <polygon class="cls-3" points="275.68 10.21 220.54 10.21 220.54 24.71 237.96 24.71 237.96 66.13 258.48 66.13 258.48 24.71 275.68 24.71 275.68 10.21"/>
    <path class="cls-3" d="M0,68.21V13.04H5.87c10.74,13.91,34.62,44.05,37.56,49.22h.15c-.46-7.88-.39-15.76-.39-24.65V13.04h4.64v55.17h-5.64C32.46,55.69,8.73,24.71,4.4,18.29h-.15c.39,7.19,.39,14.99,.39,24.73v25.19H0Z"/>
    <path class="cls-3" d="M112.14,40.47c0,15.76-10.66,28.9-28.36,28.9s-28.59-12.75-28.59-28.98c0-15.38,11.44-28.52,28.59-28.52s28.36,13.14,28.36,28.59m-51.85-.31c0,12.6,8.27,24.73,23.49,24.73s23.26-10.66,23.26-24.26c0-12.29-8.5-24.26-23.72-24.26-13.99,0-23.03,10.9-23.03,23.8"/>
    <path class="cls-3" d="M135.06,68.21L110.1,13.04h5.18l14.07,31.14c5.18,11.36,7.11,16.15,8.19,19.01h.15c.85-2.4,4.33-10.12,7.19-16.54l15.3-33.61h5.18l-25.35,55.17h-4.94Z"/>
    <path class="cls-3" d="M220.18,40.47c0,15.76-10.66,28.9-28.36,28.9s-28.59-12.75-28.59-28.98c0-15.38,11.44-28.52,28.59-28.52s28.36,13.14,28.36,28.59m-51.85-.31c0,12.6,8.27,24.73,23.49,24.73s23.26-10.66,23.26-24.26c0-12.29-8.5-24.26-23.72-24.26-13.99,0-23.03,10.9-23.03,23.8"/>
  </g>
</svg>