<?xml version="1.0" encoding="utf-8"?>
<!-- Generator: Adobe Illustrator 26.5.0, SVG Export Plug-In . SVG Version: 6.00 Build 0)  -->
<svg version="1.1" id="Layer_1" xmlns="http://www.w3.org/2000/svg" xmlns:xlink="http://www.w3.org/1999/xlink" x="0px" y="0px"
	 viewBox="0 0 365 359.5" style="enable-background:new 0 0 365 359.5;" xml:space="preserve">
<style type="text/css">
	.st0{fill:#FFFFFF;}
	.st1{fill:#C1C1C1;}
	.st2{fill:#BB0000;}
</style>
<g id="XMLID_1_">
	<path id="XMLID_3_" class="st0" d="M92,129.8l-0.3,113.8c4.6-1.5,8.7-3,13.8-4.5l0-112.5C101,127.7,96.5,128.6,92,129.8"/>
	<path id="XMLID_4_" class="st0" d="M288.1,148.1c1,0.3,11,3.4,11,3.4l0,102.4c4.9,2.4,9.2,4.8,13.6,7.6l0-105.3
		c0,0,12.1,4.7,13,5.1V146c-12.1-5.1-25.2-9-37.7-12.8L288.1,148.1z"/>
	<path id="XMLID_5_" class="st0" d="M244.7,123.5c-12.2-2.2-23.2-3.3-35.5-4.4l0,14.2c4.1,0.4,10.2,1.1,10.2,1.1l0,96.1
		c5.1,0.7,10.3,1.4,14.9,2.2l-0.5-96.5c0,0,5.6,0.8,10.8,1.7L244.7,123.5L244.7,123.5z"/>
	<path id="XMLID_8_" class="st0" d="M126.5,219.6l0.3-81.8l8.8-1.3l0.4,81.3L126.5,219.6z M120.9,123.8l-8.1,10.6l0.1,94.3l7.3,6.6
		c8.3-2,14.4-3,22.4-4.2l6.7-8.8l0.3-92.1l-9.4-9.2C133.9,121.8,127.4,122.5,120.9,123.8"/>
	<path id="XMLID_11_" class="st0" d="M269.9,176l-8.3-2.1l0-32.6l8.4,2.1L269.9,176z M283.5,143.9l-7.7-13.9
		c-6.5-1.8-12.3-2.8-18.8-4.2l-9,8.2l0,101.6c4.5,1.2,9,2.1,13.4,3.5v-50.7l8.8,2.5v51.1c4.5,1.7,9,3.1,13.3,5L283.5,143.9
		L283.5,143.9z"/>
	<path id="XMLID_12_" class="st0" d="M70.6,182.2l-9.1,3.5l-0.2-47c-4.7,1.7-9.1,3-13.8,4.9l0,122.1c5-3.4,8.8-5.3,14.7-8.9L62,201
		c0,0,5.3-2.3,9.3-3.7l0.1,54.7c4.5-2.2,8.3-3.7,13.1-5.7l0-114.5c-4.7,1.4-9.4,2.4-14,4.1L70.6,182.2L70.6,182.2L70.6,182.2z"/>
	<polygon id="XMLID_13_" class="st0" points="160.9,206.2 160.9,251.9 171.1,261.9 196,262.1 206.1,251.9 205.8,179.1 194.9,168.6 
		176.1,168.6 176.1,112.7 191.1,112.8 191.1,148.6 205.9,148.6 205.9,107.3 195.9,97.3 171.1,97.3 160.9,107.3 160.9,175.4 
		172,185.9 190.6,185.9 190.7,248 175.8,248 175.8,206.2 	"/>
	<path id="XMLID_16_" class="st0" d="M24.8,302.7l-10.3,7l0.1-136l10.3-5.4L24.8,302.7z M7.1,161.5L0,175v144.9l11.2,7.5
		c1.9-1.2,19.5-11.9,20.7-12.5l6.6-14.2l0.1-142.3L28.3,151C21,154.4,14.1,157.6,7.1,161.5"/>
	<path id="XMLID_17_" class="st0" d="M330.7,303c10.1,7.7,24.9,19.5,34.2,27.3v-18.6c-6.3-5.1-19.4-15.6-19.4-15.6v-56.6
		c0,0,13.4,7.3,19.4,10.9v-17.7c-5.8-3.6-20-11.2-20-11.2l0-51.5c0,0,13.2,6.5,20,10.4l0-16.3c-10.9-6.5-23-11.1-34.6-16.3
		L330.7,303z"/>
	<path id="XMLID_18_" class="st1" d="M140.5,239.6v20.9l22.2,21.8l41.6,0.3l22.1-22.3l0.1-20.4c-3.8-0.6-6.7-1.1-10.5-1.6v17.6
		l-15.7,15.7l-33.2,0.1l-16-15.5v-17.8C147.3,238.9,144.3,239,140.5,239.6"/>
	<path id="XMLID_19_" class="st1" d="M163,76.8l-22.5,22v13.1c3.8-0.5,6.8-0.6,10.6-1v-7.7l16.1-15.7h32.7l15.8,15.7v7.6
		c3.8,0.4,6.9,0.8,10.7,1.3V98.8l-22-22L163,76.8z"/>
	<path id="XMLID_20_" class="st1" d="M303,66.4L236.4,0H131.1L63.7,66.2l0.1,52c-21,6.7-43.1,14.8-63.5,25.8v11
		c22.4-12.9,55.9-24.1,74.1-29.5V71.1l61.4-60.3l96.1,0l60.6,59.9l-0.1,54.5c21,5.9,52.4,17.8,72.6,29.1v-11
		c-20.3-10.9-40.5-18.2-61.9-25.1L303,66.4z"/>
	<path id="XMLID_21_" class="st1" d="M292.5,287.8l-60.5,61.1l-96.5-0.1l-61-60.7v-28.6c-11.1,5.4-18.9,10.2-26.9,16v12.6
		c4.8-3.8,10.8-8.8,16.2-12v16l67.6,67.2l104.7,0.1l67-67l0-15.7c7.6,4.5,14.3,9.1,20.5,14.4v-12.4c-9.1-7-19.4-13.8-31-19.3
		L292.5,287.8z"/>
	<path id="XMLID_22_" class="st2" d="M139.6,20.6L84.1,75.3v47.4c15.8-4.4,31-7.1,46.6-9.5V94.5L158.9,67h49.6l27.6,27.7v18.4
		c15.6,2.3,30.7,5.2,46.6,9.6V75.5l-55-55L139.6,20.6L139.6,20.6z"/>
	<path id="XMLID_23_" class="st2" d="M84.2,283.9l55.2,54.4l88.5,0.7l54.8-55.4l0-28.4c-14.6-6.2-29.4-10.6-46.5-14l0,23.1l-27.4,28
		l-50.1-0.4l-28-27.6v-23c-16.5,3.3-32.7,8-46.5,13.9L84.2,283.9L84.2,283.9L84.2,283.9z"/>
</g>
</svg>
