<?xml version="1.0" encoding="utf-8"?>
<!-- Generator: Adobe Illustrator 26.5.0, SVG Export Plug-In . SVG Version: 6.00 Build 0)  -->
<svg version="1.1" id="Layer_1" xmlns="http://www.w3.org/2000/svg" xmlns:xlink="http://www.w3.org/1999/xlink" x="0px" y="0px"
	 viewBox="0 0 228.7 190.9" style="enable-background:new 0 0 228.7 190.9;" xml:space="preserve">
<style type="text/css">
	.st0{clip-path:url(#SVGID_00000117657958629214826320000009990420207955402920_);fill:#F9A01B;}
	.st1{clip-path:url(#SVGID_00000006701882756348995690000009646263293400477329_);fill:#E56020;}
	.st2{clip-path:url(#SVGID_00000138562744427627439540000007993369213279726753_);fill:#B95915;}
	.st3{clip-path:url(#SVGID_00000147906597451255377460000001521038057114635447_);}
</style>
<g>
	<g>
		<defs>
			<rect id="SVGID_1_" x="-188.4" y="-72.9" width="594" height="444"/>
		</defs>
		<clipPath id="SVGID_00000094599088592260301790000001309679870487790263_">
			<use xlink:href="#SVGID_1_"  style="overflow:visible;"/>
		</clipPath>
	</g>
	<g>
		<defs>
			<rect id="SVGID_00000064354255614867623890000008865333036507084162_" x="-188.4" y="-72.9" width="594" height="444"/>
		</defs>
		<clipPath id="SVGID_00000039114545878508900000000012799745800560740746_">
			<use xlink:href="#SVGID_00000064354255614867623890000008865333036507084162_"  style="overflow:visible;"/>
		</clipPath>
	</g>
	<g>
		<defs>
			<rect id="SVGID_00000005244996121642601190000014350484645331085225_" x="-188.4" y="-72.9" width="594" height="444"/>
		</defs>
		<clipPath id="SVGID_00000004535853558042618540000007201992547837715105_">
			<use xlink:href="#SVGID_00000005244996121642601190000014350484645331085225_"  style="overflow:visible;"/>
		</clipPath>
	</g>
	<g>
		<defs>
			<rect id="SVGID_00000061441944986951894150000006917070494093766282_" x="-188.4" y="-72.9" width="594" height="444"/>
		</defs>
		<clipPath id="SVGID_00000096752340141185639230000007393850071963845775_">
			<use xlink:href="#SVGID_00000061441944986951894150000006917070494093766282_"  style="overflow:visible;"/>
		</clipPath>
	</g>
	<g>
		<defs>
			<rect id="SVGID_00000033349406981266268830000001274115980113924009_" x="-188.4" y="-72.9" width="594" height="444"/>
		</defs>
		<clipPath id="SVGID_00000108271905018561793050000012553935451818238897_">
			<use xlink:href="#SVGID_00000033349406981266268830000001274115980113924009_"  style="overflow:visible;"/>
		</clipPath>
	</g>
	<g>
		<defs>
			<rect id="SVGID_00000173879696417441010930000001823224882888634037_" x="-188.4" y="-72.9" width="594" height="444"/>
		</defs>
		<clipPath id="SVGID_00000171693743029938979050000001630762686192846490_">
			<use xlink:href="#SVGID_00000173879696417441010930000001823224882888634037_"  style="overflow:visible;"/>
		</clipPath>
	</g>
	<g>
		<defs>
			<rect id="SVGID_00000057836527451821632290000014710198266994349238_" x="-188.4" y="-72.9" width="594" height="444"/>
		</defs>
		<clipPath id="SVGID_00000119096581413777015090000014339088889707893132_">
			<use xlink:href="#SVGID_00000057836527451821632290000014710198266994349238_"  style="overflow:visible;"/>
		</clipPath>
	</g>
	<g>
		<defs>
			<rect id="SVGID_00000029755075904523896880000007271582215940424854_" x="-188.4" y="-72.9" width="594" height="444"/>
		</defs>
		<clipPath id="SVGID_00000156553132412507275420000011794083432814074286_">
			<use xlink:href="#SVGID_00000029755075904523896880000007271582215940424854_"  style="overflow:visible;"/>
		</clipPath>
	</g>
	<g>
		<defs>
			<rect id="SVGID_00000115479494277541954620000007934073023457731515_" x="-188.4" y="-72.9" width="594" height="444"/>
		</defs>
		<clipPath id="SVGID_00000081640619594364513460000002608094707796236673_">
			<use xlink:href="#SVGID_00000115479494277541954620000007934073023457731515_"  style="overflow:visible;"/>
		</clipPath>
	</g>
	<g>
		<defs>
			<rect id="SVGID_00000104664188903264090870000006253137731585855128_" x="-188.4" y="-72.9" width="594" height="444"/>
		</defs>
		<clipPath id="SVGID_00000008119470291293946450000013352821047778878354_">
			<use xlink:href="#SVGID_00000104664188903264090870000006253137731585855128_"  style="overflow:visible;"/>
		</clipPath>
	</g>
	<g>
		<defs>
			<rect id="SVGID_00000046308112342076889430000006930028632110105475_" x="-188.4" y="-72.9" width="594" height="444"/>
		</defs>
		<clipPath id="SVGID_00000130617247377263881660000005540276465277751986_">
			<use xlink:href="#SVGID_00000046308112342076889430000006930028632110105475_"  style="overflow:visible;"/>
		</clipPath>
	</g>
	<g>
		<defs>
			<rect id="SVGID_00000025434904308097980660000007810757939271411376_" x="-188.4" y="-72.9" width="594" height="444"/>
		</defs>
		<clipPath id="SVGID_00000154395902679262027510000006067961577615304121_">
			<use xlink:href="#SVGID_00000025434904308097980660000007810757939271411376_"  style="overflow:visible;"/>
		</clipPath>
	</g>
	<g>
		<defs>
			<rect id="SVGID_00000067201760095111973790000006744579936914465694_" x="-188.4" y="-72.9" width="594" height="444"/>
		</defs>
		<clipPath id="SVGID_00000142888636868167991950000012271619144511058058_">
			<use xlink:href="#SVGID_00000067201760095111973790000006744579936914465694_"  style="overflow:visible;"/>
		</clipPath>
	</g>
	<g>
		<defs>
			<rect id="SVGID_00000104690191567200802310000015480209850713570724_" x="-188.4" y="-72.9" width="594" height="444"/>
		</defs>
		<clipPath id="SVGID_00000181044810314015829330000011231634392820380843_">
			<use xlink:href="#SVGID_00000104690191567200802310000015480209850713570724_"  style="overflow:visible;"/>
		</clipPath>
	</g>
	<g>
		<defs>
			<rect id="SVGID_00000091736298444624654670000003416438379830038157_" x="-188.4" y="-72.9" width="594" height="444"/>
		</defs>
		<clipPath id="SVGID_00000021837274087262058150000005193555593212668591_">
			<use xlink:href="#SVGID_00000091736298444624654670000003416438379830038157_"  style="overflow:visible;"/>
		</clipPath>
	</g>
	<g>
		<defs>
			<rect id="SVGID_00000165920053583322287690000013647048464650595250_" x="-188.4" y="-72.9" width="594" height="444"/>
		</defs>
		<clipPath id="SVGID_00000171691845755787826740000013565481072601861789_">
			<use xlink:href="#SVGID_00000165920053583322287690000013647048464650595250_"  style="overflow:visible;"/>
		</clipPath>
	</g>
	<g>
		<defs>
			<rect id="SVGID_00000133499955201562170960000002862977830880458658_" x="-188.4" y="-72.9" width="594" height="444"/>
		</defs>
		<clipPath id="SVGID_00000003089768027904259600000001940073669663743640_">
			<use xlink:href="#SVGID_00000133499955201562170960000002862977830880458658_"  style="overflow:visible;"/>
		</clipPath>
	</g>
	<g>
		<defs>
			<rect id="SVGID_00000109726352278010503910000008508400333032830629_" x="-188.4" y="-72.9" width="594" height="444"/>
		</defs>
		<clipPath id="SVGID_00000047031236228927834090000001161904617429588374_">
			<use xlink:href="#SVGID_00000109726352278010503910000008508400333032830629_"  style="overflow:visible;"/>
		</clipPath>
	</g>
	<g>
		<defs>
			<rect id="SVGID_00000152261010099272162190000004568644971179201194_" x="-188.4" y="-72.9" width="594" height="444"/>
		</defs>
		<clipPath id="SVGID_00000109013221063167944310000013315515946340636586_">
			<use xlink:href="#SVGID_00000152261010099272162190000004568644971179201194_"  style="overflow:visible;"/>
		</clipPath>
	</g>
	<g>
		<defs>
			<rect id="SVGID_00000152957014459824973850000007328179164013771171_" x="-188.4" y="-72.9" width="594" height="444"/>
		</defs>
		<clipPath id="SVGID_00000042734289560725993830000017076337732518590886_">
			<use xlink:href="#SVGID_00000152957014459824973850000007328179164013771171_"  style="overflow:visible;"/>
		</clipPath>
	</g>
	<g>
		<defs>
			<rect id="SVGID_00000030478974794983096280000003238429438754704830_" x="-188.4" y="-72.9" width="594" height="444"/>
		</defs>
		<clipPath id="SVGID_00000134245554007758141530000008660301417588995744_">
			<use xlink:href="#SVGID_00000030478974794983096280000003238429438754704830_"  style="overflow:visible;"/>
		</clipPath>
	</g>
	<g>
		<defs>
			<rect id="SVGID_00000020361251424043172400000013825951439013872803_" x="-188.4" y="-72.9" width="594" height="444"/>
		</defs>
		<clipPath id="SVGID_00000040557699853340138540000016426802308739680183_">
			<use xlink:href="#SVGID_00000020361251424043172400000013825951439013872803_"  style="overflow:visible;"/>
		</clipPath>
	</g>
	<g>
		<defs>
			<rect id="SVGID_00000036963817878422392130000006729456756362839452_" x="-188.4" y="-72.9" width="594" height="444"/>
		</defs>
		<clipPath id="SVGID_00000087407017274627742710000002956427030314107034_">
			<use xlink:href="#SVGID_00000036963817878422392130000006729456756362839452_"  style="overflow:visible;"/>
		</clipPath>
	</g>
	<g>
		<defs>
			<rect id="SVGID_00000067230769676072463160000001557681843831817660_" x="-188.4" y="-72.9" width="594" height="444"/>
		</defs>
		<clipPath id="SVGID_00000120532172483746773240000001891131393977189531_">
			<use xlink:href="#SVGID_00000067230769676072463160000001557681843831817660_"  style="overflow:visible;"/>
		</clipPath>
	</g>
	<g>
		<defs>
			<rect id="SVGID_00000026855836207130778210000012370060894403660420_" x="-188.4" y="-72.9" width="594" height="444"/>
		</defs>
		<clipPath id="SVGID_00000114779038638491697610000017218654204561889933_">
			<use xlink:href="#SVGID_00000026855836207130778210000012370060894403660420_"  style="overflow:visible;"/>
		</clipPath>
		<polygon style="clip-path:url(#SVGID_00000114779038638491697610000017218654204561889933_);fill:#F9A01B;" points="-1.1,189.7 
			109.7,129 34.6,189.7 125.8,137.3 124.3,147.8 139.5,139.4 173.9,171.9 192.2,116.9 218.6,115.2 205.1,81.9 229.1,63.1 
			198.1,51.1 206,17.7 179.6,29.8 166,1.1 144.9,22.2 106.9,5.2 101.7,39.1 67.8,46.4 87.8,58.5 67.7,68.6 84.8,70.1 14.3,124.9 
			85.2,87.3 9.2,145.2 90.1,103 3.7,168 99,117.2 		"/>
	</g>
	<g>
		<defs>
			<rect id="SVGID_00000121281774107162332840000016902567807986307975_" x="-188.4" y="-72.9" width="594" height="444"/>
		</defs>
		<clipPath id="SVGID_00000046301632000193919420000016574641783591641994_">
			<use xlink:href="#SVGID_00000121281774107162332840000016902567807986307975_"  style="overflow:visible;"/>
		</clipPath>
		<path style="clip-path:url(#SVGID_00000046301632000193919420000016574641783591641994_);fill:#E56020;" d="M201.8,82.4
			c-1.3,30.5-27,54.1-57.4,52.9c-30.5-1.3-54.1-27-52.9-57.4c1.3-30.5,27-54.1,57.4-52.9C179.3,26.2,203,51.9,201.8,82.4"/>
	</g>
	<g>
		<defs>
			<rect id="SVGID_00000171698818886862198620000006276189632679963308_" x="-188.4" y="-72.9" width="594" height="444"/>
		</defs>
		<clipPath id="SVGID_00000044170350955251095440000010264856617409729981_">
			<use xlink:href="#SVGID_00000171698818886862198620000006276189632679963308_"  style="overflow:visible;"/>
		</clipPath>
		<path style="clip-path:url(#SVGID_00000044170350955251095440000010264856617409729981_);fill:#B95915;" d="M153.4,127.7
			c-30.5-1.3-54.1-27-52.9-57.4c0.6-14.1,6.4-26.7,15.5-36.1c-14.2,9.5-23.8,25.3-24.5,43.7c-1.3,30.5,22.4,56.2,52.9,57.4
			c16.4,0.7,31.4-5.9,41.9-16.8C176.9,124.7,165.5,128.2,153.4,127.7"/>
	</g>
	<g>
		<defs>
			<rect id="SVGID_00000084530768775675254270000009650160810502691468_" x="-188.4" y="-72.9" width="594" height="444"/>
		</defs>
		<clipPath id="SVGID_00000060023049777220365200000008759763499453816225_">
			<use xlink:href="#SVGID_00000084530768775675254270000009650160810502691468_"  style="overflow:visible;"/>
		</clipPath>
		<path style="clip-path:url(#SVGID_00000060023049777220365200000008759763499453816225_);" d="M201.8,80.7c0-2-0.1-3.9-0.2-5.9
			c-3.2-2.2-7-3.9-11.5-4.5c-0.9-0.1-1.7-0.2-2.5-0.2c-0.5-3.6-1.4-7.2-2.5-10.7c0.6,0,1.1,0.1,1.7,0.1c3.9,0.3,7.7,0.7,11.5,1.3
			c-0.5-1.4-1.1-2.8-1.7-4.1c-4.2-0.6-8.6-1.1-12.9-1.5c-1.4-3.6-3.1-7-5.1-10.2c2.8-0.6,5.3-1.7,7.4-3.7c-1-1.1-2.1-2.1-3.3-3
			c-1.8,1.6-4.1,2.5-6.7,2.8c-0.4-0.6-0.8-1.1-1.2-1.7c-3.8-4.9-8.1-9-12.8-12.4c-4.2-1.2-8.5-1.9-13-2.1h-0.7
			c8.4,3.3,15.9,8.8,21.9,16.3c-5.7-0.6-12.4-2.5-18.9-4.4c-1.9-0.6-3.8-1.1-5.7-1.6c-11.2-3.1-19.7-3.6-26.2-3
			c-4.8,2.7-9.1,6.2-12.9,10.1c6.9-2.9,21-7.9,38-3.1c1.8,0.5,3.7,1,5.6,1.6c7.5,2.2,16,4.7,23.2,4.8c2,3,3.8,6.2,5.2,9.5
			c-1.4-0.1-2.9-0.1-4.3-0.1c-35.4-0.6-65.8,10-82.7,26.9c0.1,3.4,0.5,6.6,1.1,9.8c4.8-6.8,11.8-13,20.9-18.1
			c17.2-9.6,39.9-14.7,64.1-14.3c0.8,0,1.7,0,2.5,0.1c1.2,3.5,2.1,7.1,2.7,10.8c-15.6,0.7-25.7,10.4-37.3,20.7
			c-10.4,9.3-23.1,18.6-41.7,24.2c1.8,2.2,3.7,4.2,5.7,6c17.5-7.1,29.1-18,39-26.8c11.2-10,20.7-19.6,34.8-20
			c0.4,3.9,0.4,7.9,0,11.9c-1.9,21.6-14.4,40-31.5,49c4.4-0.4,8.6-1.3,12.6-2.7c1.4-1.1,2.7-2.3,4-3.6c11.2-11,18.1-26.1,19.6-42.3
			c0.4-4.1,0.4-8.1,0-12.1c0.7,0.1,1.4,0.1,2.1,0.3C195,75.4,198.8,77.8,201.8,80.7"/>
	</g>
</g>
</svg>
