<?xml version="1.0" encoding="utf-8"?>
<!-- Generator: Adobe Illustrator 26.5.0, SVG Export Plug-In . SVG Version: 6.00 Build 0)  -->
<svg version="1.1" id="Layer_1" xmlns="http://www.w3.org/2000/svg" xmlns:xlink="http://www.w3.org/1999/xlink" x="0px" y="0px"
	 viewBox="0 0 1140.4 1144.4" style="enable-background:new 0 0 1140.4 1144.4;" xml:space="preserve">
<style type="text/css">
	.st0{fill:#BD1934;}
	.st1{fill:#272727;}
	.st2{fill:#FFFFFF;}
	.st3{fill:#8C8D8E;}
</style>
<g>
	<ellipse class="st0" cx="570.2" cy="570.7" rx="570.2" ry="570.7"/>
	<g>
		<ellipse class="st1" cx="562.5" cy="572.9" rx="536.5" ry="534.2"/>
		<path class="st1" d="M310.4,292.5c-5,5.1-9.5,11.1-15.4,15.1c-4.7,3.1-9.1-0.7-13-4.6c-12.8-12.8-26-25.2-38.9-37.9
			c-7.3-7.1-7.3-10.1-0.5-17.4c2.2-2.3,4.2-4.8,6.6-6.7c4.2-3.3,8.6-4,12.9,0.1c14.8,14.3,29.6,28.5,44.1,42.9
			C307.9,285.6,308.5,288.5,310.4,292.5z"/>
		<path class="st1" d="M928.8,410.4c-2.1-2-5.3-3.7-6.6-6.3c-7.9-15.4-11.4-18.5,8.5-27.4c15.1-6.7,29.9-14.3,44.9-21.3
			c7-3.3,11-1.8,14.4,5.2c1.5,3,2.9,6.1,4.3,9.1c2.5,5.5,1,9.9-4.5,12.5c-18.4,8.9-36.8,17.7-55.3,26.4
			C933.1,409.3,931.5,409.6,928.8,410.4z"/>
		<path class="st1" d="M728,1007.3c-1.8-1.6-5.7-3.4-6.9-6.4c-7.7-18.9-14.8-38.1-21.9-57.2c-2.1-5.8-0.3-10.3,5.7-12.7
			c16.7-6.7,19.4-8.6,26.4,11.4c5.4,15.4,11.5,30.6,17.3,45.9c2.8,7.4,0.9,11.6-6.6,14.5c-3.6,1.4-7.2,2.8-10.8,4.1
			C730.8,1007,730.3,1007,728,1007.3z"/>
		<path class="st1" d="M836.9,890.1c-6.2-7.4-12.4-14.6-19-22.4c5.9-5.1,10.9-10.5,17-14c2.7-1.5,7.8,0.2,11.4,1.6
			c2.4,1,3.9,4.2,5.7,6.4c6.8,8,6.5,11.6-1.7,18.5c-3.7,3.1-7.4,6.2-11.1,9.3C838.9,889.6,838.4,889.6,836.9,890.1z"/>
		<path class="st1" d="M561.8,146c0-9.9-0.1-19.7,0-29.6c0.1-7.2,3.5-10.4,10.6-10.6c3.4-0.1,6.7-0.1,10.1,0
			c6.2,0.2,9.9,3.5,9.9,9.8c0.1,20.2,0.1,40.5,0,60.7c0,6.3-3.6,9.6-9.9,9.8c-2.9,0.1-5.8,0-8.7,0c-9.1-0.1-12.1-3-12.1-12
			C561.8,164.8,561.8,155.4,561.8,146z"/>
		<path class="st1" d="M392.3,177.9c-4.1-9.5-8-18.5-12-27.9c7.2-3.2,13.5-7.2,20.4-8.7c11.3-2.4,11.3,8.5,14.9,14.8
			c2.9,5.1,2.1,10.1-3.2,12.9C406,172.4,399.3,174.9,392.3,177.9z"/>
		<path class="st1" d="M200.4,748.5c9.4-4.9,17.9-9.3,26.9-14.1c3.5,6.7,6.8,13.1,10.2,19.4c0.1,0.2,0.2,0.4,0.3,0.7
			c1.9,11.3-8.2,11.8-14.3,15.7c-4.9,3.1-9.9,2.5-13-2.6C206.8,761.7,204,755.3,200.4,748.5z"/>
		<path class="st1" d="M286.8,910.8c-6.3-5.7-11.8-10.7-18.1-16.6c11.9-7.1,23.2-13.9,34.5-20.6c0.5,0.4,0.9,0.8,1.4,1.2
			C298.9,886.4,293.1,898.1,286.8,910.8z"/>
	</g>
	<path class="st2" d="M730.3,98.8c9.9,4.1,18.8,7.6,27.5,11.8c1.7,0.8,3,4.1,3.1,6.2c0.3,21.5,0.3,43,0.3,64.5c0,2.5,0,5,0,7.6
		c0.6,0.1,1.3,0.3,1.9,0.4c9.1-21.3,18.2-42.6,27.6-64.8c8.5,3.6,16.8,7.1,25.8,10.8c-18.6,43.8-36.9,87.1-55.5,131
		c-6.9-2.9-13.5-5.3-19.5-8.6c-1.9-1-3.5-4.4-3.7-6.8c-1.8-25.5-3.2-51-4.8-76.5c-0.1-2.3-0.6-4.6-2.2-7.1
		c-10.2,24.1-20.4,48.1-31,72.9c-8.4-3.5-16.4-6.9-25-10.5C693.3,185.9,711.7,142.8,730.3,98.8z"/>
	<path class="st2" d="M290.9,342.1c-8.2,2.4-14.8-2.5-21.5-9.3c-19-19.2-38.5-37.9-58.2-56.4c-5.1-4.8-6.8-9.9-7.4-16.9
		c-1.1-12.4,2.7-21.5,12.2-29.5c7.7-6.5,14.1-14.5,21.4-21.5c1.9-1.8,4.8-3,7.4-3.4c5.5-0.7,11.1-1.1,16.6-0.6
		c3.5,0.3,7.6,1.6,10.1,3.9c22.5,21.5,44.8,43.2,66.9,65.1c2.4,2.4,3.9,6.4,4.5,9.9c2.7,14.3-1.1,26.2-13.4,35.1
		c-5,3.7-8.9,8.8-13.2,13.3C306.3,342.1,306.3,342.1,290.9,342.1z M310.4,292.5c-1.9-4.1-2.5-6.9-4.2-8.6
		c-14.6-14.4-29.4-28.6-44.1-42.9c-4.2-4.1-8.7-3.4-12.9-0.1c-2.4,1.9-4.4,4.4-6.6,6.7c-6.9,7.3-6.8,10.3,0.5,17.4
		c12.9,12.7,26.1,25.1,38.9,37.9c3.9,3.9,8.3,7.7,13,4.6C300.9,303.7,305.3,297.6,310.4,292.5z"/>
	<path class="st2" d="M927.5,445c-8.3-2.9-15.8-5.3-23.2-8.2c-1.7-0.7-2.9-3.1-3.8-5c-6.1-12.6-12.3-25.1-17.9-37.9
		c-1.4-3.1-1.1-7.3-0.5-10.8c2.5-14.2,10.5-22.9,24.4-28.7c24.2-10,47.4-22.3,71.3-33.3c3.2-1.5,7.7-1.4,11.4-0.8
		c14.8,2.4,24.1,11,28.6,25.5c2.2,7,6,13.7,9.7,20.1c3.4,6,2.6,11.2,1,17.7c-3,12.5-10.3,19.1-21.8,24.1
		c-24.5,10.7-48.3,22.8-72.5,34.2C931.8,443.3,929.4,444.2,927.5,445z M928.8,410.4c2.6-0.8,4.3-1,5.8-1.7
		c18.5-8.8,36.9-17.6,55.3-26.4c5.5-2.6,6.9-6.9,4.5-12.5c-1.4-3.1-2.8-6.1-4.3-9.1c-3.4-7-7.4-8.5-14.4-5.2
		c-15,7.1-29.8,14.6-44.9,21.3c-19.9,8.8-16.4,12-8.5,27.4C923.5,406.7,926.7,408.4,928.8,410.4z"/>
	<path class="st2" d="M724.9,1042.6c-5.4-2.4-10.9-5.4-16.8-7.3c-6.6-2.1-9.1-6.8-11.3-12.7c-9.9-26.9-20.1-53.6-30.5-80.3
		c-2.3-5.8-1.8-10.5,0.2-16.3c4.1-12.6,11.8-20,24.6-23.2c8.1-2,16-5.4,23.6-8.9c6-2.7,11-1.9,17,0.2c12,4.3,18.7,11.7,22.8,24.1
		c8.2,24.9,18.2,49.2,27.8,73.6c2.2,5.6,1.3,10.2-0.5,15.8c-4,12.7-11.7,19.9-24.6,23.1c-9.3,2.3-18,6.6-27,10
		C728.7,1041.3,727.1,1041.9,724.9,1042.6z M728,1007.3c2.3-0.3,2.8-0.3,3.3-0.5c3.6-1.3,7.2-2.7,10.8-4.1c7.5-2.9,9.4-7.1,6.6-14.5
		c-5.8-15.3-11.9-30.4-17.3-45.9c-7-20-9.7-18-26.4-11.4c-6,2.4-7.9,6.9-5.7,12.7c7.1,19.2,14.3,38.3,21.9,57.2
		C722.3,1003.9,726.2,1005.8,728,1007.3z"/>
	<path class="st2" d="M860,917.2c10,11.8,19.8,23.4,30,35.5c-7,5.9-13.7,11.6-21.1,17.9c-30.8-36.3-61.3-72.2-92.2-108.7
		c12.5-10.7,25.5-20.1,36.4-31.5c10.1-10.5,21.1-12.3,34.3-10.1c5.6,0.9,9.6,2.7,13.2,7.2c8.3,10.4,17.8,19.8,25.4,30.6
		c3.2,4.6,3.7,11.7,3.6,17.7c-0.1,6.6,1.9,10.3,8,13.2c13.8,6.7,27.3,14.2,41.6,21.7c-7.4,6.3-14,12.3-21,17.7
		c-1.3,1-4.5,0.6-6.3-0.3c-10.2-4.9-20.3-10.1-30.3-15.3C870,906.9,870,906.9,860,917.2z M836.9,890.1c1.5-0.4,2-0.5,2.4-0.7
		c3.7-3.1,7.4-6.2,11.1-9.3c8.2-6.8,8.6-10.5,1.7-18.5c-1.9-2.2-3.4-5.4-5.7-6.4c-3.5-1.5-8.7-3.2-11.4-1.6c-6.1,3.5-11.1,9-17,14
		C824.5,875.4,830.7,882.7,836.9,890.1z"/>
	<path class="st2" d="M622.1,146c0,15-0.2,29.9,0.1,44.9c0.1,5.4-1.8,9.1-5.2,13.4c-8.4,10.5-18.4,14.8-31.9,13.2
		c-8.8-1.1-17.8-0.6-26.8-0.1c-5.9,0.3-9.5-2.3-13.9-5.8c-10.5-8.2-13.5-18.2-13-31.3c1.1-26.3,0.4-52.6,0.2-78.9
		c0-5.2,1.8-8.7,5-12.7c8.8-11.1,19.5-16.3,33.7-14c4,0.7,8.3,0.7,12.3,0c15-2.5,26.8,2.5,35.3,14.9c2,2.9,3.8,6.7,3.9,10.1
		C622.3,115.1,622.1,130.6,622.1,146z M561.8,146c0,9.4,0,18.8,0,28.2c0,9,3,12,12.1,12c2.9,0,5.8,0.1,8.7,0
		c6.2-0.3,9.8-3.5,9.9-9.8c0.1-20.2,0.1-40.5,0-60.7c0-6.3-3.6-9.6-9.9-9.8c-3.4-0.1-6.7-0.1-10.1,0c-7.2,0.1-10.5,3.4-10.6,10.6
		C561.7,126.3,561.8,136.2,561.8,146z"/>
	<path class="st2" d="M483.1,226.7c-7.8,3.5-15.4,7.1-23.3,10.1c-2,0.7-5.6-0.2-7.2-1.7c-8.6-7.7-16.8-15.9-25.2-24
		c-9-8.6-9-8.7-21.2-1.5c6,13.9,12,28,18.3,42.6c-8.6,3.7-16.7,7.3-25.4,11.1c-18.9-43.6-37.6-86.8-56.7-130.8
		c14.7-6.4,29.6-11.2,42.6-19c15.2-9.1,28.2-5.3,41.7,2c1.9,1,3.4,3.3,4.3,5.3c6,13.4,12.3,26.7,17.5,40.4c1.5,3.9,0.6,9.6-1.1,13.7
		c-3.9,9-1.5,14.9,5.6,21.2C463.4,205.5,472.6,216,483.1,226.7z M392.3,177.9c7-3,13.8-5.5,20.1-8.8c5.3-2.8,6.1-7.8,3.2-12.9
		c-3.6-6.4-3.6-17.2-14.9-14.8c-6.8,1.4-13.1,5.5-20.4,8.7C384.3,159.4,388.2,168.4,392.3,177.9z"/>
	<path class="st2" d="M242.2,695.5c10,19.2,19.7,37.7,29.1,56.3c0.9,1.9,0.7,4.7,0.2,6.8c-5.9,21.5-5.9,21.5-25.6,31.9
		c-4,2.1-8.3,3.9-12.1,6.4c-10.5,7-21.5,9.9-33.7,4.8c-3.9-1.6-6.6,0.3-9.2,3.4c-10.5,12.5-21.3,24.9-32.4,37.8
		c-4.5-8.5-8.8-16.3-12.5-24.3c-0.7-1.5,0.4-4.5,1.6-6.1c7.1-8.9,14.4-17.5,21.7-26.2c8.4-10,8.5-10,0.5-21.9
		c-13.4,6.9-27,13.9-41.1,21.3c-4.3-8.2-8.4-16.1-12.9-24.5C157.7,739.4,199.5,717.7,242.2,695.5z M200.4,748.5
		c3.5,6.9,6.4,13.2,10,19.1c3.1,5.1,8.1,5.7,13,2.6c6.1-3.9,16.3-4.4,14.3-15.7c0-0.2-0.2-0.4-0.3-0.7c-3.3-6.3-6.6-12.7-10.2-19.4
		C218.3,739.1,209.9,743.5,200.4,748.5z"/>
	<path class="st2" d="M957.6,813.9c4.4-8.4,8.8-16.8,13.5-25.8c3.8,1.7,7.1,3.3,11,5.1c3.6-6.8,7.3-13,10.3-19.6
		c2.5-5.4-0.7-10.1-8.9-13.9c-5.4-2.5-9.8-1.6-12.8,3.9c-4.1,7.6-7.8,15.5-12.3,22.9c-1.7,2.7-4.8,5-7.8,6.5
		c-13.9,6.9-27.4,7.4-40-3c-1.3-1-2.9-1.8-4.5-2.3c-15.7-5-24.5-15.8-26.4-32.1c-0.3-2.9-0.4-6.2,0.8-8.7
		c6.1-12.3,12.8-24.3,19-36.6c2.1-4.3,4.8-6.9,9.5-7.7c1.9-0.3,3.9-0.7,5.5-1.6c13.1-7.2,23.3-0.2,34.2,6.8
		c-4.5,8.6-8.9,17.1-13.6,26.1c-3.4-1.5-6.4-2.7-10.3-4.4c-3.5,6.8-7.2,13.5-10.5,20.3c-0.7,1.4-0.5,4.5,0.4,5.3
		c4.3,3.5,8.6,7.7,13.6,9.3c3.9,1.3,7.8-1.9,9.8-6.6c2.8-6.4,6.8-12.3,9.6-18.6c2.6-6,7-8.5,12.9-11c12.5-5.3,23.5-4.5,34.3,3.5
		c2.3,1.7,4.9,3.2,7.6,4.1c15.5,4.8,23.3,15.8,25.2,31.4c0.3,2.7,0.5,5.8-0.7,8.1c-6.6,13.1-13.4,26.2-20.5,39
		c-1.2,2.2-4,3.7-6.3,5.1c-1.6,1-3.8,0.9-5.5,1.8C980.8,828.7,969.3,822.6,957.6,813.9z"/>
	<path class="st2" d="M201.1,900.5c27.6-16.5,54.6-32.7,81.7-48.9c14-8.4,28.1-16.8,42-25.4c3.5-2.2,6-2.7,9.3,0.7
		c5.6,5.9,12,11.1,18.3,16.9c-22,44.8-43.9,89.3-66.2,134.7c-7.2-6.5-14.1-12.6-20.7-19.1c-0.8-0.8-0.4-3.5,0.2-5
		c2.4-6,7.9-12.4,6.9-17.5c-1.1-5.2-8.6-9.1-13.4-13.5c-0.2-0.2-0.3-0.3-0.5-0.5c-4.9-4.3-9.3-11.2-14.8-12.1
		c-4.9-0.8-10.7,5.3-16.3,7.9c-1.8,0.8-4.9,1.2-6.1,0.1C214.5,913.1,208.1,907,201.1,900.5z M286.8,910.8c6.3-12.7,12-24.4,17.8-36
		c-0.5-0.4-0.9-0.8-1.4-1.2c-11.3,6.7-22.6,13.5-34.5,20.6C275.1,900.1,280.5,905.1,286.8,910.8z"/>
	<path class="st2" d="M413,884.8c19.7,8.1,38.6,15.9,57.3,23.9c1.7,0.7,3.2,2.8,4.1,4.5c7.3,13.5,10.3,26.8,1.2,41.2
		c-4.6,7.2-6.6,16-10.4,23.8c-1.5,3.2-4.5,5.9-7.2,8.2c-9.6,8-19.5,7.6-30.3,1.6c-7.3-4.1-15.4-6.7-24.1-10.3
		c-6.9,16.3-13.7,32.4-20.7,49c-8.2-3.4-15.9-6.6-24.8-10.2C376.5,972.7,394.6,929.2,413,884.8z M414.1,952.6
		c9.9,1.2,17.7,12.4,26.6,4.3c4.6-4.3,7.7-13.7,6.6-19.9c-1.8-10.3-13.8-8.3-21.2-13.2C422,933.7,418.3,942.5,414.1,952.6z"/>
	<path class="st2" d="M247.8,440.6c-34.4-15.3-67.9-30.3-102-45.6c-3.6,8-7.1,15.6-10.7,23.6c-9.5-4.3-18.4-8.3-28-12.6
		c11.2-25,22.2-49.5,33.4-74.7c9.4,4.2,18.3,8.2,27.9,12.5c-3.4,7.9-6.7,15.5-10.2,23.8c33.8,15.2,67.4,30.2,101.8,45.7
		C255.9,422.4,252,431.1,247.8,440.6z"/>
	<path class="st2" d="M892.4,183.8c17.8,19.1,36.3,38.8,54.4,58.2c-5.4,5.4-12.5,12.4-20.5,20.5c-4.8-5.9-10-12.2-14.6-17.8
		c-28.1,26.9-54.7,52.4-81.9,78.4c-5.4-6-12-13.2-20.3-22.3c25.8-24.5,52.6-49.9,80.9-76.7c-8.4-7-14.8-12.4-21.4-17.9
		C877.2,198.3,884.3,191.5,892.4,183.8z"/>
	<path class="st2" d="M564.7,953.7c-10.1,0-18.2,0-26.7,0c0-10.3,0-20.1,0-30.4c26.9,0,53.6,0,81.8,0c0,8.9,0.3,17.7-0.3,26.5
		c-0.1,1.3-3.6,3.4-5.7,3.5c-6.2,0.5-12.5,0.2-19.4,0.2c0,37.3,0,74,0,111.4c-9.6,0-18.9,0-29.7,0
		C564.7,1028.3,564.7,991.5,564.7,953.7z"/>
	<path class="st3" d="M457.3,619.4c16,6.6,28-3.8,40.3-11.2c9-5.4,18.8-5.3,28.2-8c3.9-1.1,8.2-3,10.8-5.9
		c12.9-14,25.3-28.6,38-42.7c1.3-1.5,4.2-2.8,6.1-2.5c19,3.4,34.2-4.8,48.3-15.9c7.2-5.7,14.6-10.3,24.1-10
		c10.8,0.4,15.8-9.4,23.8-13.8c4.5-2.5,8.2-4.4,13.8-4c19,1.2,37.7,0.9,56.2-6.3c11.4-4.4,24.6-4.2,37-5.3c1.6-0.1,4.9,3.8,5.2,6.1
		c2.8,19.3,5.7,38.6,7.4,58.1c1.4,15.7,0.6,15.1-15,18.6c-11.7,2.6-23.3,6.4-34.3,11.2c-6.9,3-13.1,3.8-20.2,2.5
		c-2.3-0.4-6.1-0.3-7.2,1.1c-5.9,7.8-15.1,7.7-23,10.8c-2.9,1.1-6.1,3.2-7.6,5.7c-6,9.7-16.8,15.2-28.3,14c-2.4-0.3-5-0.5-7.1,0.2
		c-7.6,2.6-15.2,5.5-22.5,8.7c-2.4,1.1-5.7,3.1-6.2,5.2c-1.7,6.7-5.9,9.6-11.9,12.1c-12.6,5.4-24.7,12.1-37.3,17.6
		c-9.1,4-12.1,12.7-17.2,19.8c-5,6.8-7.6,15.3-17.6,17.9c-2.6,0.7-4.6,7.7-4.9,11.9c-0.6,7.5-4.9,12.2-9.8,16.9
		c-8.7,8.3-18,16.1-26.1,25.1c-5.9,6.6-9.8,14.9-15.2,21.9c-2.1,2.7-5.8,5-9,5.5c-9.3,1.6-18.8,1.6-28,3.3c-5.3,1-10.2,4.2-15.4,5.8
		c-3.5,1.1-7.4,1.8-10.9,1.2c-8.4-1.4-16.5-6.3-25-0.1c-0.9,0.7-3.2-0.2-4.7-0.7c-6.6-2.3-13-5.8-19.7-7
		c-19.2-3.6-29.6-17.7-39.9-32.1c-4.9-6.8-9.4-14-14.3-20.9c-5.9-8.3-3.5-14.6,6.7-16.6c5.4-1,11-1.3,16.6-1.6c4.8-0.3,8-1.8,9.4-7
		c1.4-5.1,4.6-9.7,5.8-14.8c4.9-20.8,19.8-32.8,36.8-43.2c6.9-4.2,13.1-11,20.5-12.7c11-2.6,20-6,27.5-15.1
		C444,620,451.4,620.7,457.3,619.4z"/>
	<path class="st3" d="M272.2,607.1c-0.8-7.2-2-12.9-2-18.5c0.1-30,2.9-59.7,8.8-89.2c2.6-12.8,7.6-23.5,19.4-31.2
		c18.3-12,35.5-25.9,53.2-38.9c6.1-4.5,12.3-7.4,20.6-6c6.4,1.1,13.3,0.2,19.8-1.2c6.2-1.3,11.9-1.8,17.5,1.4
		c4.2,2.4,7.4,1.5,11.1-1.6c8.1-6.8,16.5-13.4,25-19.7c2.5-1.8,6.1-3.3,9.1-3.2c14.2,0,28.4,0.8,42.6,1c2.4,0,5.4-0.7,7.3-2.1
		c17.5-13.2,37.3-18.3,58.9-17.9c8.4,0.1,16.9-1.4,25.3-1.1c7.1,0.2,14.1,1.9,21.2,2.9c1.9,0.3,3.8,1.1,5.7,0.9
		c12.3-1.2,23.3,1.7,32.4,10.4c6.2,6,14,6.8,22.1,7.2c3.8,0.2,7.8,0.6,11.3,1.9c22.5,8.1,45.5,13,69.5,9.8c5.4-0.7,8.8,0.9,10.7,6
		c7.1,18.2,14.3,36.3,21.4,54.5c1.5,3.8,0.6,6.4-4.3,6.8c-17.3,1.7-34.5,4.4-51.8,5.2c-7.6,0.4-15.4-3.3-23.2-4.4
		c-10.2-1.6-20.1-6.9-31-1.7c-2.5,1.2-7.4-1.4-10.7-3.2c-5-2.7-9.4-2.3-14.4,0c-12.8,5.7-25.7,10.9-38.6,16.4
		c-0.9,0.4-1.8,1-2.7,1.1c-13.6,0.8-27.3,1.4-41,2.1c-0.6,0-1.5-0.4-1.9-0.9c-6.5-7.8-14.5-5.5-22.6-3.6c-2.7,0.7-6.4,1-8.4-0.3
		c-8.5-5.5-17.3-2.7-26-1.6c-2.7,0.3-5.6,1.8-7.6,3.7c-8,7.3-16.1,14.7-23.5,22.6c-4.9,5.2-10.6,6.5-17,6.1
		c-8.7-0.5-17.3-1.3-25.9-2.1c-7.9-0.7-15.2,0.3-21.6,5.8c-10.1,8.7-22,13.1-35.5,12.8c-1.2,0-2.4,0.5-3.6,0.5
		c-7.2-0.1-12.8,2.4-17.1,8.6c-1.4,2-4.8,3.6-7.3,3.6c-14.4,0.3-25.7,6.4-35.3,17c-11.3,12.5-23.4,24.4-35.1,36.6
		C275.9,604.4,274.6,605.1,272.2,607.1z"/>
	<path class="st3" d="M534.7,873.4c9.2-5,16.9-9.3,24.6-13.5c3.8-2,6.4-4.2,6.5-9.3c0-2.4,2.9-5,4.9-7c5.2-5.2,11.4-9.6,15.7-15.4
		c9-12.2,17.2-25,25.5-37.6c1.8-2.8,3.2-6,4-9.2c2.9-11.4,5.1-23,8.4-34.4c0.8-2.9,4-5.3,6.6-7.3c2-1.6,4.7-2.4,7.2-3.4
		c4.5-1.9,5.8-4.6,6.9-9.9c3.1-15,9.6-29.3,12.6-44.3c3.1-15.5,15.3-20.7,26.5-27.2c8.6-5,16-11.1,19.7-20.3
		c3.6-8.8,10.2-12,18.5-14.1c3-0.8,5.6-3,8.4-4.7c6.4-3.8,12.3-8.5,19.1-11.2c12.7-5,25.9-8.9,38.9-13.1c6.3-2.1,9.1,0.2,8.3,7
		c-2.5,19.8-3.1,40.1-7.9,59.4c-6.2,25.2-14.1,50.2-24.2,74.1c-10.8,25.5-25.4,49.1-44,70.2c-18.7,21.2-38.7,40.4-63.4,54.4
		c-18,10.2-37.5,15.9-57.7,17.7c-20.1,1.7-40.4,0.6-60.6,0.7C538.3,874.7,537.5,874.2,534.7,873.4z"/>
	<path class="st3" d="M379.1,336.5c1.9-1.7,3.7-3.4,5.7-5c26.6-20.4,55.7-36,86.7-48.7c27.2-11.2,55.2-17.4,84.4-17
		c32.3,0.4,62.7,8.8,91.1,24.9c40.2,22.8,71,55,96.1,93.3c1.5,2.2,2.7,4.6,4,6.9c2.6,4.4,1.5,6.5-3.8,6.9
		c-18.4,1.3-36.8-0.8-52.7-9.5c-8.3-4.5-15.3-11.4-25.1-13.5c-1.4-0.3-2.3-2.3-3.5-3.5c-9.7-10.1-21.6-16.7-35-20.5
		c-2.6-0.7-5.9-0.6-8.3,0.5c-5.1,2.4-9.4,1.9-14.2-0.8c-9.2-5.2-18.6-10.4-28.4-14.3c-6.1-2.4-13.1-2.4-19.7-3.3
		c-1.7-0.2-3.4-0.4-5.1-0.1c-13.4,2.1-24.3-2.2-33.5-12.2c-1.8-1.9-4.9-3.4-7.5-3.6c-17.1-1.3-34.2-1.7-51.2-3.3
		c-10.5-1-19.3,3.5-28.5,6.6c-15.8,5.3-31.3,11.3-47,16.9c-1.2,0.4-2.5,0.4-3.8,0.6C379.6,337.3,379.3,336.9,379.1,336.5z"/>
	<path class="st3" d="M688.3,853.5c6.8-5.7,13.8-11.2,20.5-17c20.5-17.9,36.7-39.2,51.2-62.3c27.6-44,42.4-92.2,50-142.9
		c1.6-10.5,1.5-21.2,2.5-31.7c0.7-8.4,2-9.3,10.1-6.7c21.3,6.8,39.7,17.6,50.5,38.2c1.4,2.7,2.1,6.7,1.4,9.6
		c-9.1,39.8-26.2,76-50.1,109c-33,45.6-75.3,79.8-127.1,101.9c-1.8,0.8-3.5,1.5-5.4,2.2c-0.9,0.3-1.8,0.4-2.8,0.6
		C688.8,854.1,688.5,853.8,688.3,853.5z"/>
	<path class="st3" d="M879,613.9c-15.4-20.5-35.7-32.5-59.9-38.6c-2.3-0.6-5.2-4.3-5.6-6.8c-3.1-23.1-5.7-46.3-8.5-69.5
		c-0.5-4-0.3-7.3,5.1-7.3c19.9,0,39.5,1.5,58.4,8.4c5.1,1.9,7.9,5,8.9,10.3c6.6,33.7,8,67.4,2.6,101.4
		C880,612.2,879.7,612.6,879,613.9z"/>
	<path class="st3" d="M870.8,484.2c-14.9-2.5-28.8-5.3-42.8-7c-7.1-0.9-14.4-0.1-21.6,0.2c-4.2,0.2-6.2-1.4-7.7-5.7
		c-7-19.5-14.3-38.8-21.9-58c-2-5.1-2.4-7.8,3.4-10.7c13-6.5,22.8-16.7,30.8-29.5C840,405.9,858.1,443.6,870.8,484.2z"/>
	<path class="st3" d="M636.5,270.9c27.4,4.8,52.9,14.6,77.6,26.7c26.6,13.1,50.8,29.7,72.5,49.8c14.6,13.5,14.7,15.8,1.6,30.6
		c-4,4.6-9.7,7.8-14.9,11.2c-4.6,3-7.9,1.3-10.7-3.3c-15-24.6-32.5-47.2-53.5-67c-19.9-18.8-41-35.9-67.1-45.4
		C640.2,272.7,638.4,271.7,636.5,270.9z"/>
</g>
</svg>
