<?xml version="1.0" encoding="utf-8"?>
<!-- Generator: Adobe Illustrator 26.5.0, SVG Export Plug-In . SVG Version: 6.00 Build 0)  -->
<svg version="1.1" id="Layer_1" xmlns="http://www.w3.org/2000/svg" xmlns:xlink="http://www.w3.org/1999/xlink" x="0px" y="0px"
	 viewBox="0 0 348 310.2" style="enable-background:new 0 0 348 310.2;" xml:space="preserve">
<style type="text/css">
	.st0{fill:#FFFFFF;}
</style>
<path class="st0" d="M154.3,233.9c0,10.9,8.9,19.8,19.8,19.8s19.8-8.9,19.8-19.8s-8.9-19.8-19.8-19.8l0,0
	C163.2,214.1,154.3,223,154.3,233.9z"/>
<polygon class="st0" points="170.3,172.4 0,48.6 28.4,107.8 160.2,203.5 "/>
<polygon class="st0" points="157.5,211.4 35.7,122.8 64.1,182.1 104.5,211.4 "/>
<polygon class="st0" points="127.5,228.1 94.3,252.3 134.8,281.7 147.4,242.7 "/>
<polygon class="st0" points="207.3,286 174,310.2 140.8,286 174.1,261.9 207.2,286 "/>
<polygon class="st0" points="177.7,172.3 187.8,203.5 319.6,107.9 348,48.6 "/>
<polygon class="st0" points="243.5,211.4 243.5,211.4 243.5,211.4 243.5,211.4 283.9,182.1 312.4,122.8 190.5,211.4 "/>
<polygon class="st0" points="200.4,242.8 213.3,281.7 253.7,252.3 220.6,228.2 "/>
<polygon class="st0" points="323.9,0 282.3,86.6 344,41.8 "/>
<polygon class="st0" points="4.1,41.8 65.8,86.6 24.2,0 "/>
</svg>
