<?xml version="1.0" encoding="utf-8"?>
<!-- Generator: Adobe Illustrator 26.5.0, SVG Export Plug-In . SVG Version: 6.00 Build 0)  -->
<svg version="1.1" id="Layer_1" xmlns="http://www.w3.org/2000/svg" xmlns:xlink="http://www.w3.org/1999/xlink" x="0px" y="0px"
	 viewBox="0 0 576 391" style="enable-background:new 0 0 576 391;" xml:space="preserve">
<style type="text/css">
	.st0{fill:#FFFFFF;}
</style>
<g>
	<path class="st0" d="M576,0l-56.3,120.8H294.2l-71,152.4h-63.8c0.5-7.6,2-15.2,4.5-22.7c6.1-18.4,17.6-33.5,32-44.4
		c3.8,4.3,7.2,9,10.3,14c0.5,0.8,1.4,0.7,1.8,0l0,0L310.7,0H576z"/>
	<path class="st0" d="M53.8,320.4c-6.4,12.9-15.6,23.8-26.8,32.2c-9.3-10.8-16.7-23.5-21.5-37.9c-3.2-9.6-5-19.4-5.5-29h63.4
		C62.5,297.6,59.3,309.4,53.8,320.4"/>
	<path class="st0" d="M105.1,285.6V391c-25.9-1.5-50.5-12-69.4-29.4c12.1-9.4,22.1-21.4,29.1-35.5c6.4-12.8,10.1-26.5,10.9-40.4
		h29.4V285.6z"/>
	<path class="st0" d="M58.8,250.5c2.5,7.4,4,15.1,4.5,22.7H0c1.4-24.8,11-48.3,27-66.8C41.4,217.1,52.7,232.2,58.8,250.5"/>
	<path class="st0" d="M105.1,167.8v105.4H75.8c-0.5-8.9-2.2-17.9-5.1-26.6c-6.7-20.3-19.2-37.1-34.9-49.3c11.3-10.5,25-18.8,40.6-24
		C85.9,170.2,95.5,168.4,105.1,167.8"/>
	<path class="st0" d="M146.9,273.2h-29.3V167.8c25.9,1.4,50.6,11.9,69.5,29.3c-16.3,12.5-28.4,29.5-35,49.5
		C149.2,255.3,147.4,264.3,146.9,273.2"/>
	<path class="st0" d="M187.1,361.7c-11.3,10.4-24.9,18.6-40.3,23.7c-9.7,3.2-19.5,5-29.2,5.5V285.6h29.3
		c0.9,13.9,4.5,27.6,10.9,40.4C164.9,340.2,174.9,352.3,187.1,361.7"/>
	<path class="st0" d="M223.1,285.6c-1.4,24.8-11.1,48.5-27.2,67.1c-11.3-8.4-20.5-19.4-27-32.3c-5.5-11-8.7-22.8-9.5-34.8
		L223.1,285.6L223.1,285.6z"/>
</g>
</svg>
