<?xml version="1.0" encoding="utf-8"?>
<!-- Generator: Adobe Illustrator 26.5.0, SVG Export Plug-In . SVG Version: 6.00 Build 0)  -->
<svg version="1.1" id="Layer_1" xmlns="http://www.w3.org/2000/svg" xmlns:xlink="http://www.w3.org/1999/xlink" x="0px" y="0px"
	 viewBox="0 0 264.6 144.3" style="enable-background:new 0 0 264.6 144.3;" xml:space="preserve">
<style type="text/css">
	.st0{fill:#FFB612;}
	.st1{fill:#5A1414;}
</style>
<path class="st0" d="M180.7,0l8.5,25.9l-6.3,19.3L168.2,0h-65.9L90.5,36.2L78.7,0H0l24.7,40.2l33.9,104.1h63.8l12.8-39.3l12.8,39.3
	h69.7L264.6,0H180.7z M33.5,36.1L17.2,9.6h54.5l13.7,42.2L62,123.6L33.5,36.1z M115.3,134.8H68.5l38.2-117.4l23.4,71.9L115.3,134.8z
	 M114.3,9.6h46.8l16.7,51.2l-23.4,72L114.3,9.6z M210.6,134.8h-46.8L199.2,26l-5.3-16.4h57.4L210.6,134.8z"/>
<path class="st1" d="M177.8,60.8l-23.4,72l-40-123.2h46.8L177.8,60.8z M193.9,9.6l5.3,16.4l-35.4,108.8h46.8L251.4,9.6H193.9z
	 M71.7,9.6H17.2l16.3,26.5l28.6,87.6l23.3-71.8L71.7,9.6z M68.5,134.8h46.9l14.8-45.4l-23.4-71.9L68.5,134.8z"/>
</svg>
