<?xml version="1.0" encoding="utf-8"?>
<!-- Generator: Adobe Illustrator 26.5.0, SVG Export Plug-In . SVG Version: 6.00 Build 0)  -->
<svg version="1.1" id="Layer_1" xmlns="http://www.w3.org/2000/svg" xmlns:xlink="http://www.w3.org/1999/xlink" x="0px" y="0px"
	 viewBox="0 0 512 437.3" style="enable-background:new 0 0 512 437.3;" xml:space="preserve">
<style type="text/css">
	.st0{fill:#FFFFFF;}
</style>
<path class="st0" d="M225.8,425.4l-2.5-2.3L48.1,260.4C17.4,231.9,0,191.9,0,150v-3.3C0,76.3,50,15.9,119.2,2.7
	c39.4-7.6,79.7,1.5,111.8,24.1c9,6.4,17.4,13.8,25,22.3c4.2-4.8,8.7-9.2,13.5-13.3c3.7-3.2,7.5-6.2,11.5-9l0,0
	C313.1,4.2,353.4-4.9,392.8,2.6C462,15.8,512,76.3,512,146.7v3.3c0,41.9-17.4,81.9-48.1,110.4L288.7,423.1l-2.5,2.3
	c-8.2,7.6-19,11.9-30.2,11.9S234,433.1,225.8,425.4L225.8,425.4z M237.9,94.1c-0.4-0.3-0.7-0.7-1.1-1.2l-19-21.4l-0.1-0.1l0,0
	c-24.7-27.7-62-40.3-98.4-33.4c-49.8,9.5-85.8,53-85.8,103.7v3.5c0,30.5,12.7,59.7,35.1,80.4l187.4,174l187.4-174
	c22.4-20.8,35.1-50,35.1-80.4v-3.5c0-50.6-35.9-94.1-85.7-103.7c-36.4-7-73.8,5.8-98.4,33.4c0,0,0,0-0.1,0.1c-0.1,0.1,0,0-0.1,0.1
	l-19,21.4c-0.3,0.4-0.7,0.7-1.1,1.2c-4.8,4.8-11.3,7.5-18.1,7.5s-13.3-2.7-18.1-7.5V94.1z"/>
</svg>
