<?xml version="1.0" encoding="utf-8"?>
<!-- Generator: Adobe Illustrator 26.5.0, SVG Export Plug-In . SVG Version: 6.00 Build 0)  -->
<svg version="1.1" id="Layer_1" xmlns="http://www.w3.org/2000/svg" xmlns:xlink="http://www.w3.org/1999/xlink" x="0px" y="0px"
	 viewBox="0 0 20 20" style="enable-background:new 0 0 20 20;" xml:space="preserve">
<style type="text/css">
	.st0{fill:#FFFFFF;}
</style>
<path class="st0" d="M18.7,9.7h-5.5c-0.3,0-0.5,0.2-0.6,0.4l-1.4,4.1L9,3.2C8.9,2.9,8.7,2.7,8.4,2.7c-0.3,0-0.6,0.2-0.7,0.4L5.6,9.7
	H1.2c-0.4,0-0.7,0.3-0.7,0.7c0,0.4,0.3,0.7,0.7,0.7H6c0.3,0,0.5-0.2,0.6-0.4l1.5-4.6l2.2,10.9c0.1,0.3,0.3,0.5,0.6,0.5c0,0,0,0,0,0
	c0.3,0,0.5-0.2,0.6-0.4l2.1-5.9h5c0.4,0,0.7-0.3,0.7-0.7C19.4,10,19.1,9.7,18.7,9.7z"/>
</svg>
