<?xml version="1.0" encoding="utf-8"?>
<!-- Generator: Adobe Illustrator 26.5.0, SVG Export Plug-In . SVG Version: 6.00 Build 0)  -->
<svg version="1.1" id="sparkling" xmlns="http://www.w3.org/2000/svg" xmlns:xlink="http://www.w3.org/1999/xlink" x="0px" y="0px"
	 viewBox="0 0 25.6 34" style="enable-background:new 0 0 25.6 34;" xml:space="preserve">
<style type="text/css">
	.st0{fill:#FFFFFF;}
	.st1{fill:none;}
	.st2{clip-path:url(#SVGID_00000105414454026977158330000006298321452804770713_);fill:none;}
</style>
<polygon class="st0" points="0.8,19.7 12.2,19.7 7.6,33.2 24.8,14.2 13.5,14.2 18,0.8 "/>
<g>
	<g>
		<g>
			<rect id="SVGID_1_" y="0" class="st1" width="25.6" height="34"/>
		</g>
		<g>
			<defs>
				<rect id="SVGID_00000015321538538136270210000008523744411604178829_" y="0" width="25.6" height="34"/>
			</defs>
			<clipPath id="SVGID_00000154390631821025552360000006609016821439814334_">
				<use xlink:href="#SVGID_00000015321538538136270210000008523744411604178829_"  style="overflow:visible;"/>
			</clipPath>
			<path style="clip-path:url(#SVGID_00000154390631821025552360000006609016821439814334_);fill:none;" d="M8.4,33.4
				c0.1-0.4,0.3-0.9,0.4-1.3C9.2,31,9.5,30,9.9,28.9c0.4-1.3,0.9-2.6,1.3-3.9c0.4-1.1,0.8-2.2,1.1-3.4c0.2-0.5,0.4-1.1,0.6-1.6l0,0
				c0.2-0.5-0.3-1-0.7-1H8.3H2.2H0.8c0.2,0.4,0.4,0.9,0.5,1.3C1.9,19.7,2.4,19,3,18.4c1.4-1.5,2.7-3,4.1-4.5c1.7-1.8,3.3-3.6,5-5.4
				c1.4-1.6,2.9-3.2,4.3-4.7c0.7-0.8,1.4-1.5,2.1-2.3l0,0c-0.4-0.2-0.9-0.5-1.3-0.8c-0.1,0.4-0.3,0.9-0.4,1.3
				c-0.4,1.1-0.7,2.1-1.1,3.2c-0.4,1.3-0.9,2.6-1.3,3.9c-0.4,1.1-0.8,2.2-1.1,3.4c-0.2,0.5-0.4,1.1-0.6,1.6l0,0
				c-0.2,0.5,0.3,1,0.7,1h3.8h6.1h1.4c-0.2-0.4-0.4-0.9-0.5-1.3c-0.6,0.6-1.1,1.3-1.7,1.9c-1.4,1.5-2.7,3-4.1,4.5
				c-1.7,1.8-3.3,3.6-5,5.4c-1.4,1.6-2.9,3.2-4.3,4.7c-0.7,0.8-1.4,1.5-2.1,2.3l0,0c-0.3,0.3-0.3,0.8,0,1.1s0.8,0.3,1.1,0
				c0.6-0.6,1.1-1.3,1.7-1.9c1.4-1.5,2.7-3,4.1-4.5c1.7-1.8,3.3-3.6,5-5.4c1.4-1.6,2.9-3.2,4.3-4.7c0.7-0.8,1.4-1.5,2.1-2.3l0,0
				c0.4-0.5,0.1-1.3-0.5-1.3H21h-6.1h-1.4c0.2,0.3,0.5,0.6,0.7,1c0.2-0.4,0.3-0.9,0.5-1.3c0.4-1.1,0.7-2.1,1.1-3.2
				c0.4-1.3,0.9-2.6,1.3-3.9c0.4-1.1,0.8-2.2,1.1-3.4c0.2-0.5,0.4-1.1,0.5-1.6l0,0C19,0.3,18-0.3,17.5,0.3c-0.6,0.6-1.1,1.3-1.7,1.9
				c-1.4,1.5-2.7,3-4.1,4.5c-1.7,1.8-3.3,3.6-5,5.4c-1.4,1.6-2.9,3.2-4.3,4.7c-0.7,0.8-1.4,1.5-2.1,2.3l0,0
				c-0.4,0.5-0.1,1.3,0.5,1.3h3.8h6.1h1.4c-0.2-0.3-0.5-0.7-0.7-1c-0.2,0.4-0.3,0.9-0.5,1.3c-0.4,1.1-0.7,2.1-1.1,3.2
				C9.5,25.4,9,26.7,8.6,28c-0.4,1.1-0.8,2.2-1.1,3.4c-0.2,0.5-0.4,1.1-0.6,1.6l0,0c-0.1,0.4,0.1,0.9,0.5,0.9
				C7.8,34,8.2,33.8,8.4,33.4"/>
		</g>
	</g>
</g>
</svg>
