<?xml version="1.0" encoding="utf-8"?>
<!-- Generator: Adobe Illustrator 26.5.0, SVG Export Plug-In . SVG Version: 6.00 Build 0)  -->
<svg version="1.1" id="sparkling" xmlns="http://www.w3.org/2000/svg" xmlns:xlink="http://www.w3.org/1999/xlink" x="0px" y="0px"
	 viewBox="0 0 31.2 33" style="enable-background:new 0 0 31.2 33;" xml:space="preserve">
<style type="text/css">
	.st0{fill:none;}
	.st1{clip-path:url(#SVGID_00000182516390095799118820000001545475815034363035_);fill:#FFFFFF;}
</style>
<g>
	<g>
		<g>
			<rect id="SVGID_1_" y="0" class="st0" width="31.2" height="33"/>
		</g>
		<g>
			<g>
				<defs>
					<rect id="SVGID_00000138555366192232855080000009790411214444226729_" y="0" width="31.2" height="33"/>
				</defs>
				<clipPath id="SVGID_00000057868382800898730600000013602034212129316019_">
					<use xlink:href="#SVGID_00000138555366192232855080000009790411214444226729_"  style="overflow:visible;"/>
				</clipPath>
				<path style="clip-path:url(#SVGID_00000057868382800898730600000013602034212129316019_);fill:#FFFFFF;" d="M6.2,0
					C5.8,0,5.4,0.4,5.4,0.9v4.5H4.5V2.7c0-0.5-0.5-1-1-0.9C3,1.8,2.7,2.2,2.7,2.7v2.7H1.8V3.6c0-0.5-0.5-1-1-0.9
					C0.4,2.7,0,3.1,0,3.6V9c0,0.5,0.4,0.9,0.9,0.9S1.8,9.5,1.8,9V7.1h0.9v2.7c0,0.5,0.4,0.9,0.9,0.9s0.9-0.4,0.9-0.9V7.1h0.9v4.5
					c0,0.5,0.5,1,1,0.9c-1.2,3.1-2.1,6.1-1,9.8L5,24.1C5.8,25,6.7,25,8,25.4c4,2.2,7.1,2.7,13.8,0.9c0,1.8,1.3,4.9,4,6.7h5.4V16
					l-3.6,1.3c-3.1-1.8-5.4-1.8-8.9,1.3c-2.7-1.3-3.6-1.3-6.2,0.4c0-1.3-0.4-2.7-1.3-4l1.3-5.8c1.1-0.4,2.2-1,2.5-2.2h1v4.5
					c0,0.5,0.4,0.9,0.9,0.9s0.9-0.4,0.9-0.9V7.1h0.9v2.7c0,0.5,0.4,0.9,0.9,0.9s0.9-0.4,0.9-0.9V7.1h0.9v1.8c0,0.5,0.4,0.9,0.9,0.9
					s0.9-0.4,0.9-0.9V3.6c0-0.5-0.5-1-1-0.9c-0.4,0-0.8,0.4-0.8,0.9v1.8h-0.9V2.7c0-0.5-0.5-1-1-0.9c-0.4,0-0.8,0.4-0.8,0.9v2.7
					h-0.9V0.9c0-0.5-0.5-1-1-0.9C16.4,0,16,0.4,16,0.9v4.5h-0.9c-0.1-2-0.5-2.8-0.9-2.7c-0.4,0-0.9,0.4-0.9,0.9
					c0-0.4-0.4-0.9-0.9-0.9c-0.4,0-0.9,0.4-0.9,0.9c0-0.4-0.4-0.9-0.9-0.9S9.8,3.1,9.8,3.6c0-0.4-0.4-0.9-0.9-0.9S8,3.1,8,4v1.3H7.1
					V0.9C7.1,0.4,6.6-0.1,6.2,0 M7.1,7.1H8v0.4c-0.3,1-0.6,1.9-0.9,2.9V7.1z"/>
			</g>
		</g>
	</g>
</g>
</svg>
