<?xml version="1.0" encoding="utf-8"?>
<!-- Generator: Adobe Illustrator 26.5.0, SVG Export Plug-In . SVG Version: 6.00 Build 0)  -->
<svg version="1.1" id="sparkling" xmlns="http://www.w3.org/2000/svg" xmlns:xlink="http://www.w3.org/1999/xlink" x="0px" y="0px"
	 viewBox="0 0 29 34" style="enable-background:new 0 0 29 34;" xml:space="preserve">
<style type="text/css">
	.st0{fill:none;}
	.st1{clip-path:url(#SVGID_00000078725195922003962540000007330070695883844782_);fill:#FFFFFF;}
</style>
<g>
	<g>
		<g>
			<rect id="SVGID_1_" y="0" class="st0" width="29" height="34"/>
		</g>
		<g>
			<g>
				<defs>
					<rect id="SVGID_00000174579808056935833430000006007927459048554685_" y="0" width="29" height="34"/>
				</defs>
				<clipPath id="SVGID_00000101787944026100090660000002144304816527146679_">
					<use xlink:href="#SVGID_00000174579808056935833430000006007927459048554685_"  style="overflow:visible;"/>
				</clipPath>
				<path style="clip-path:url(#SVGID_00000101787944026100090660000002144304816527146679_);fill:#FFFFFF;" d="M14.9,30.3
					c0.3,0.3,0.3,0.6,0,0.9l-2.5,2.5c-0.2,0.3-0.6,0.3-0.9,0c-0.3-0.2-0.3-0.6,0-0.9l1.5-1.5C5.2,30.5-0.5,23.5,0.2,15.6
					c0.3-2.8,1.3-5.4,3.1-7.6c2-2.5,4.8-4.3,7.9-5C11.6,3,12,3.2,12,3.5c0.1,0.3-0.1,0.7-0.4,0.7C4.5,5.9,0.1,12.9,1.7,20
					c1.2,5.4,5.7,9.4,11.2,10l-1.3-1.3c-0.2-0.3-0.2-0.6,0-0.9c0.3-0.2,0.6-0.2,0.8,0L14.9,30.3z M15.9,2.8l1.5-1.5
					c0.3-0.2,0.3-0.6,0-0.9c-0.2-0.3-0.6-0.3-0.9,0L14,2.9c-0.3,0.3-0.3,0.6,0,0.9l2.5,2.5c0.2,0.3,0.6,0.3,0.9,0
					c0.3-0.2,0.3-0.6,0-0.9L16,4c7.2,0.9,12.4,7.4,11.5,14.6c-0.6,5.5-4.7,10-10.1,11.2c-0.3,0.1-0.5,0.4-0.5,0.7
					c0.1,0.3,0.3,0.5,0.6,0.5h0.1c7.7-1.8,12.6-9.5,10.8-17.2C27.1,7.8,22,3.3,15.9,2.8 M26.3,17c0-4.9-3-9.3-7.6-11.1
					c-0.1,1-1,1.7-2,1.6c-0.4,0-0.8-0.2-1.1-0.5l-1.9-1.9c-6.5,0.4-11.5,6-11.2,12.5c0.3,4.7,3.2,8.7,7.6,10.4c0.1-1,1-1.7,2-1.6
					c0.4,0,0.8,0.2,1.1,0.5l1.9,1.9C21.4,28.5,26.3,23.3,26.3,17"/>
			</g>
		</g>
	</g>
</g>
</svg>
