<?xml version="1.0" encoding="utf-8"?>
<!-- Generator: Adobe Illustrator 26.5.0, SVG Export Plug-In . SVG Version: 6.00 Build 0)  -->
<svg version="1.1" id="Layer_1" xmlns="http://www.w3.org/2000/svg" xmlns:xlink="http://www.w3.org/1999/xlink" x="0px" y="0px"
	 viewBox="0 0 94 94.2" style="enable-background:new 0 0 94 94.2;" xml:space="preserve">
<style type="text/css">
	.st0{fill:#FFFFFF;}
</style>
<path class="st0" d="M49.5,2.7v17.8c0,1.4-1.1,2.5-2.5,2.5s-2.5-1.1-2.5-2.5V2.7c0-1.4,1.1-2.5,2.5-2.5S49.5,1.3,49.5,2.7z M47,71.4
	c-1.4,0-2.5,1.1-2.5,2.5v17.8c0,1.4,1.1,2.5,2.5,2.5s2.5-1.1,2.5-2.5V73.9C49.5,72.5,48.4,71.4,47,71.4z M91.5,44.7H73.7
	c-1.4,0-2.5,1.1-2.5,2.5s1.1,2.5,2.5,2.5h17.8c1.4,0,2.5-1.1,2.5-2.5S92.9,44.7,91.5,44.7z M22.8,47.2c0-1.4-1.1-2.5-2.5-2.5H2.5
	c-1.4,0-2.5,1.1-2.5,2.5s1.1,2.5,2.5,2.5h17.8C21.7,49.7,22.8,48.6,22.8,47.2z M21.7,18.4c-1-1-2.6-1-3.5,0c-1,1-1,2.6,0,3.5
	l8.2,8.2c0.5,0.5,1.1,0.7,1.8,0.7s1.3-0.2,1.8-0.7c1-1,1-2.6,0-3.5L21.7,18.4z M67.6,64.3c-1-1-2.6-1-3.5,0c-1,1-1,2.6,0,3.5
	l8.2,8.2c0.5,0.5,1.1,0.7,1.8,0.7s1.3-0.2,1.8-0.7c1-1,1-2.6,0-3.5L67.6,64.3z M65.9,30.8c0.6,0,1.3-0.2,1.8-0.7l8.2-8.2
	c1-1,1-2.6,0-3.5c-1-1-2.6-1-3.5,0l-8.2,8.2c-1,1-1,2.6,0,3.5C64.6,30.6,65.2,30.8,65.9,30.8z M26.4,64.3l-8.2,8.2c-1,1-1,2.6,0,3.5
	c0.5,0.5,1.1,0.7,1.8,0.7s1.3-0.2,1.8-0.7l8.2-8.2c1-1,1-2.6,0-3.5C28.9,63.4,27.3,63.4,26.4,64.3z"/>
</svg>
